<svg id="Layer_1" data-name="Layer 1" xmlns="http://www.w3.org/2000/svg" viewBox="0 0 108.872 108.872">
  <defs>
    <style>
      .cls-1 {
        fill: none;
        stroke: #fff;
        stroke-miterlimit: 10;
      }

      .cls-2 {
        fill: #fff;
      }
    </style>
  </defs>
  <title>5f8105ce-dda2-470d-a230-f965ac269208</title>
  <circle class="cls-1" cx="54.436" cy="54.436" r="53.936"/>
  <g>
    <path class="cls-2" d="M21.214,61.4H10.222s-0.04.682-.04,1.043c0,3.851,1.925,6.9,6.5,6.9a8.036,8.036,0,0,0,4.533-1.524v0.521A7.991,7.991,0,0,1,16.4,69.823c-4.011,0-6.739-2.808-6.739-7.381,0-4.693,3.25-7.221,6.178-7.221a5.185,5.185,0,0,1,5.416,5.135C21.254,60.6,21.214,61.4,21.214,61.4Zm-5.255-5.7c-2.327,0-4.974,1.484-5.7,5.255h10.47V60.2A4.579,4.579,0,0,0,15.958,55.7Z"/>
    <path class="cls-2" d="M44.964,69.382V60.556c0-3.811-1.725-4.854-3.731-4.854a5.842,5.842,0,0,0-5.375,5.335v8.344H35.337V60.556c0-3.811-1.725-4.854-3.731-4.854a5.842,5.842,0,0,0-5.375,5.335v8.344H25.709V55.7H26.23v3.53a6.171,6.171,0,0,1,5.416-4.011c2.607,0,3.931,1.564,4.132,4.172a6.25,6.25,0,0,1,5.5-4.172c3.089,0,4.212,2.166,4.212,5.255v8.906H44.964Z"/>
    <path class="cls-2" d="M62.579,69.382V65.089A6.244,6.244,0,0,1,56.4,69.863c-3.61,0-6.659-2.888-6.659-7.341s3.049-7.3,6.659-7.3a6.243,6.243,0,0,1,6.178,4.773V55.7H63.1V69.382H62.579Zm-12.315-6.86c0,4.252,2.808,6.86,6.138,6.86s6.218-2.607,6.218-6.86c0-4.172-2.888-6.819-6.218-6.819S50.263,58.35,50.263,62.522Z"/>
    <path class="cls-2" d="M68.2,51.009V49.645h0.521v1.364H68.2Zm0,18.373V55.7h0.521V69.382H68.2Z"/>
    <path class="cls-2" d="M73.813,69.382V45.312h0.521V69.382H73.813Z"/>
  </g>
</svg>
