<svg id="Layer_1" data-name="Layer 1" xmlns="http://www.w3.org/2000/svg" viewBox="0 0 179.831 94.53">
  <defs>
    <style>
      .cls-1 {
        fill: #fff;
      }
    </style>
  </defs>
  <title>962c16e9-c69c-4e0f-ae6b-400a7a33695e</title>
  <g>
    <path class="cls-1" d="M2.567,32.1V8.028H3.089V32.1H2.567Z"/>
    <path class="cls-1" d="M18.975,24.115H7.983s-0.04.682-.04,1.043c0,3.851,1.925,6.9,6.5,6.9a8.036,8.036,0,0,0,4.533-1.524v0.521a7.991,7.991,0,0,1-4.814,1.484c-4.011,0-6.739-2.808-6.739-7.381,0-4.693,3.25-7.221,6.178-7.221a5.185,5.185,0,0,1,5.416,5.135C19.015,23.313,18.975,24.115,18.975,24.115Zm-5.255-5.7c-2.327,0-4.974,1.484-5.7,5.255h10.47V22.911A4.579,4.579,0,0,0,13.72,18.418Z"/>
    <path class="cls-1" d="M25.6,18.9V32.1H25.075V18.9H22.026V18.418h3.049V13.805H25.6v4.613h3.049V18.9H25.6Z"/>
    <path class="cls-1" d="M35.706,32.579a9.576,9.576,0,0,1-4.252-1.124l0.08-.481A8.824,8.824,0,0,0,35.746,32.1c2.367,0,4.132-1.043,4.132-3.41,0-1.845-1.4-2.607-4.292-3.49-2.487-.762-3.811-1.765-3.811-3.771s1.6-3.49,4.292-3.49a8.747,8.747,0,0,1,3.41.882L39.4,19.3a8.064,8.064,0,0,0-3.33-.882c-2.648,0-3.771,1.364-3.771,3.008,0,1.886,1.324,2.648,3.61,3.37C38.594,25.6,40.4,26.6,40.4,28.648,40.4,31.416,38.273,32.579,35.706,32.579Z"/>
    <path class="cls-1" d="M57.531,32.579c-3.651,0-6.86-2.768-6.86-7.341,0-4.533,3.209-7.3,6.86-7.3A7.131,7.131,0,0,1,61.743,19.1v0.521a7.152,7.152,0,0,0-4.012-1.2c-3.57,0-6.539,2.487-6.539,6.819s2.968,6.86,6.539,6.86a6.84,6.84,0,0,0,4.012-1.164v0.521A7.393,7.393,0,0,1,57.531,32.579Z"/>
    <path class="cls-1" d="M76.628,32.1V24.155c0-4.413-1.645-5.736-4.332-5.736-2.889,0-5.777,2.768-5.777,5.536V32.1H66V8.028h0.521V22.189a6.5,6.5,0,0,1,5.817-4.252c2.928,0,4.813,1.444,4.813,6.218V32.1H76.628Z"/>
    <path class="cls-1" d="M94.242,32.1V27.805a6.244,6.244,0,0,1-6.178,4.774c-3.61,0-6.659-2.888-6.659-7.341s3.049-7.3,6.659-7.3a6.243,6.243,0,0,1,6.178,4.773V18.418h0.521V32.1H94.242Zm-12.315-6.86c0,4.252,2.808,6.86,6.138,6.86s6.218-2.607,6.218-6.86c0-4.172-2.888-6.819-6.218-6.819S81.926,21.066,81.926,25.238Z"/>
    <path class="cls-1" d="M102.026,18.9V32.1H101.5V18.9H98.456V18.418H101.5V13.805h0.521v4.613h3.049V18.9h-3.049Z"/>
  </g>
  <path class="cls-1" d="M178.84,79.408L177.1,92.445c-22.474-37.97-54.271-48.755-54.592-48.86l-0.312.95c0.08,0.026,8.094,2.7,18.783,10.069A121.916,121.916,0,0,1,176.2,92.887L164.747,88.8l-0.336.942,13.424,4.785,2-14.99Z"/>
</svg>
