<svg id="Layer_1" data-name="Layer 1" xmlns="http://www.w3.org/2000/svg" viewBox="0 0 108.872 108.872">
  <defs>
    <style>
      .cls-1 {
        fill: none;
        stroke: #fff;
        stroke-miterlimit: 10;
      }

      .cls-2 {
        fill: #fff;
      }
    </style>
  </defs>
  <title>12e2bb74-057d-47a0-98d7-9801ae785866</title>
  <circle class="cls-1" cx="54.436" cy="54.436" r="53.936"/>
  <g>
    <path class="cls-2" d="M22.458,69.382V65.089a6.244,6.244,0,0,1-6.178,4.774c-3.61,0-6.659-2.888-6.659-7.341s3.049-7.3,6.659-7.3a6.243,6.243,0,0,1,6.178,4.773V55.7h0.521V69.382H22.458Zm-12.315-6.86c0,4.252,2.808,6.86,6.138,6.86s6.218-2.607,6.218-6.86c0-4.172-2.888-6.819-6.218-6.819S10.142,58.35,10.142,62.522Z"/>
    <path class="cls-2" d="M28.116,45.312h0.521V59.994a6.243,6.243,0,0,1,6.178-4.773c3.61,0,6.659,2.848,6.659,7.3s-3.049,7.341-6.659,7.341a6.244,6.244,0,0,1-6.178-4.774L28.6,69.382H28.116V45.312ZM28.6,62.522c0,4.252,2.888,6.86,6.218,6.86s6.138-2.607,6.138-6.86c0-4.172-2.808-6.819-6.138-6.819S28.6,58.35,28.6,62.522Z"/>
    <path class="cls-2" d="M51.827,69.9c-3.892,0-7.021-2.928-7.021-7.381a7.027,7.027,0,1,1,14.041,0C58.847,66.975,55.718,69.9,51.827,69.9Zm0-14.241c-3.651,0-6.5,2.688-6.5,6.859,0,4.212,2.848,6.9,6.5,6.9s6.5-2.687,6.5-6.9C58.325,58.35,55.477,55.662,51.827,55.662Z"/>
    <path class="cls-2" d="M63.5,55.7v7.943c0,4.413,1.645,5.736,4.333,5.736,2.888,0,5.776-2.768,5.776-5.536V55.7h0.521V69.382H73.611V65.611A6.494,6.494,0,0,1,67.8,69.863c-2.929,0-4.814-1.444-4.814-6.218V55.7H63.5Z"/>
    <path class="cls-2" d="M81.4,56.184v13.2H80.875v-13.2H77.826V55.7h3.049V51.089H81.4V55.7h3.049v0.481H81.4Z"/>
  </g>
</svg>
