<svg id="Layer_1" data-name="Layer 1" xmlns="http://www.w3.org/2000/svg" viewBox="0 0 108.872 108.872">
  <defs>
    <style>
      .cls-1 {
        fill: none;
        stroke: #fff;
        stroke-miterlimit: 10;
      }

      .cls-2 {
        fill: #fff;
      }
    </style>
  </defs>
  <title>6df36413-0a09-4ada-8ece-11f65e04d8cb</title>
  <circle class="cls-1" cx="54.436" cy="54.436" r="53.936"/>
  <g>
    <path class="cls-2" d="M23.9,69.382h-0.44l-4.533-12.8-4.493,12.8H13.993L9.139,55.7H9.661l4.533,12.877L18.766,55.7h0.361L23.7,68.579,28.234,55.7h0.521Z"/>
    <path class="cls-2" d="M38.226,69.9c-3.892,0-7.021-2.928-7.021-7.381a7.027,7.027,0,1,1,14.041,0C45.247,66.975,42.118,69.9,38.226,69.9Zm0-14.241c-3.65,0-6.5,2.688-6.5,6.859,0,4.212,2.849,6.9,6.5,6.9s6.5-2.687,6.5-6.9C44.725,58.35,41.877,55.662,38.226,55.662Z"/>
    <path class="cls-2" d="M49.942,61.2v8.184H49.421V55.7h0.521v3.53a5.919,5.919,0,0,1,5.215-4.011v0.521A5.527,5.527,0,0,0,49.942,61.2Z"/>
    <path class="cls-2" d="M59.21,62.04l7.7-6.338h0.723l-7.742,6.378,7.982,7.3H67.153L59.21,62.121v7.261H58.688V45.312H59.21V62.04Z"/>
  </g>
</svg>
