<svg id="Layer_1" data-name="Layer 1" xmlns="http://www.w3.org/2000/svg" viewBox="0 0 364.271 140.978">
  <defs>
    <style>
      .cls-1 {
        fill: #fff;
      }

      .cls-2 {
        fill: #fff36a;
      }
    </style>
  </defs>
  <title>65c9ed6e-fe76-487c-ad91-06c0f7460c14</title>
  <g>
    <g>
      <path class="cls-1" d="M0,93.684V48.654H45.566l-6.384,7.668H8.907V66.376H26.58v7.668H8.907V85.206H39.543l6.384,8.478H0Z"/>
      <path class="cls-1" d="M62.326,94.342V48.427H69L98.582,75.589c1.006,0.967,2.662,2.735,2.662,2.735l1.988,3.4s-0.279-8.7-.279-9.319V55.8l8.784-7.37V94.342H105.06l-30.847-29c-0.741-.779-1.948-2.1-1.948-2.1L70.85,59.951s0.262,8.233.262,9.23v17.36Z"/>
      <path class="cls-1" d="M173.6,56.706h-27.81v28.5H173.6V75.195h-8.171l6.411-2.8,10.416-4.871V83.034q0,6.178-1.956,8.414t-7.531,2.236h-26.4q-5.577,0-7.533-2.236t-1.956-8.414V59.3q0-6.135,1.956-8.393t7.533-2.258h26.4q5.5,0,7.5,2.215t1.991,8.009V62l-8.656,2.52V56.706Z"/>
      <path class="cls-1" d="M207.678,93.733V48.427l9.864,9.426,0,27.255H240.68l8.661,8.624H207.678Z"/>
    </g>
    <g>
      <path class="cls-2" d="M43.989,131.638q0,8.256-9.527,8.255H25.5V104.7h9.013q9.474,0,9.475,8.315v18.619Zm-7.169,1.687V111.091q0-2.291-3.189-2.29H32.67v26.814h0.961Q36.819,135.615,36.82,133.325Z"/>
      <path class="cls-2" d="M78.409,139.893H62.583V104.764H78.409v4.76H69.752v8.858H78.2v4.64H69.752v12.051h8.656v4.821Z"/>
      <path class="cls-2" d="M115.388,112.235v4.278h-6.966v-3.976q0-4.7-2.457-4.7-2.153,0-2.152,2.592v2.048q0,3.134,3.022,6.146l5.428,4.942q2.92,3.013,2.92,5.724v4.821q0,6.749-9.219,6.749-9.371,0-9.373-8.738v-4.7h7.323v6.869a1.866,1.866,0,0,0,2.049,2.17q2.355,0,2.355-3.013v-2.773q0-1.988-3.123-4.941l-5.431-5q-2.916-3.132-2.917-6.146v-4.218q0-6.688,9.116-6.688,4.61,0,6.761,1.626Q115.388,107.3,115.388,112.235Z"/>
      <path class="cls-2" d="M141.046,139.893h-7.169V104.7h7.169v35.189Z"/>
      <path class="cls-2" d="M178.128,139.893h-3.739l-0.614-2.169a7.626,7.626,0,0,1-6.453,3.253,7.909,7.909,0,0,1-5.174-1.807,6.591,6.591,0,0,1-2.509-5.364V110.548a5.986,5.986,0,0,1,3.328-5.422,11.691,11.691,0,0,1,5.942-1.446,12.066,12.066,0,0,1,5.942,1.446,5.917,5.917,0,0,1,3.277,5.422v7.171h-7.169v-7.592a2.077,2.077,0,1,0-4.15,0v23.983q0,2.23,2.074,2.229t2.076-2.229v-7.654h-2.075v-4.4h9.244v17.836Z"/>
      <path class="cls-2" d="M215.158,139.893h-7.169V110.425q0-2.226-2.076-2.226t-2.074,2.226v29.469H196.67V110.548a5.913,5.913,0,0,1,3.277-5.422,13.034,13.034,0,0,1,11.935,0,5.917,5.917,0,0,1,3.277,5.422v29.345Z"/>
    </g>
    <g>
      <g>
        <g>
          <g>
            <polygon class="cls-2" points="308.204 23.279 308.204 25.218 330.991 25.218 325.114 30.433 295.576 30.433 308.204 23.279"/>
            <polygon class="cls-2" points="336.172 10.701 308.204 23.279 308.204 15.261 336.172 10.701"/>
            <polygon class="cls-2" points="356.309 7.348 336.172 10.701 360.125 0 356.309 7.348"/>
          </g>
          <g>
            <polygon class="cls-2" points="334.734 68.116 340.414 55.488 338.474 55.488 338.474 30.433 332.837 36.621 334.734 68.116"/>
            <polygon class="cls-2" points="352.991 27.52 340.414 55.488 348.431 55.488 352.991 27.52"/>
            <polygon class="cls-2" points="356.309 7.348 352.991 27.52 364.271 3.557 356.309 7.348"/>
          </g>
        </g>
        <polygon class="cls-2" points="348.965 13.616 333.898 22.64 310.091 43.76 317.407 43.76 348.965 13.616"/>
      </g>
      <g>
        <path class="cls-2" d="M249.029,108.167h0l-0.712.838c-5.527,6.33-10.887,12.809-15.969,19.517l-8.3,11.263,8.418-9.684c5.986-7.263,12.244-14.322,18.761-21.1,0,0,6.784-6.682,12.768-12.321v-4.51C257.029,99.367,257.371,99,249.029,108.167Z"/>
        <polygon class="cls-1" points="308.52 85.206 277.884 85.206 277.884 74.045 295.556 74.045 295.556 66.376 277.884 66.376 277.884 56.322 308.158 56.322 314.542 48.654 268.977 48.654 268.977 88.799 268.977 93.309 268.977 93.684 314.904 93.684 308.52 85.206"/>
      </g>
    </g>
  </g>
</svg>
