<!-- Generator: Adobe Illustrator 21.0.0, SVG Export Plug-In  -->
<svg version="1.1"
	 xmlns="http://www.w3.org/2000/svg" xmlns:xlink="http://www.w3.org/1999/xlink" xmlns:a="http://ns.adobe.com/AdobeSVGViewerExtensions/3.0/"
	 x="0px" y="0px" width="164.733px" height="50.993px" viewBox="0 0 164.733 50.993"
	 style="enable-background:new 0 0 164.733 50.993;" xml:space="preserve">
<style type="text/css">
	.st0{fill:#414042;}
</style>
<defs>
</defs>
<g>
	<g>
		<g>
			<g>
				<path class="st0" d="M2.647,14.4H1.98c0.811-3.637,3.331-8.697,4.25-10.245H0.414V3.597H6.95v0.36
					C6.014,5.433,3.35,10.781,2.647,14.4z"/>
				<path class="st0" d="M9.648,14.4V4.209L8.515,4.353v-0.45l1.746-0.45V14.4H9.648z"/>
				<path class="st0" d="M14.797,14.4h-0.666c0.811-3.637,3.331-8.697,4.249-10.245h-5.815V3.597h6.536v0.36
					C18.164,5.433,15.499,10.781,14.797,14.4z"/>
				<path class="st0" d="M18.828,14.4v-0.864h0.864V14.4H18.828z"/>
				<path class="st0" d="M25.759,14.652c-1.71,0-3.583-1.099-3.583-5.005c0-3.943,1.44-6.302,4.304-6.302
					c0.864,0,1.746,0.27,2.16,0.558v0.612c-0.504-0.306-1.332-0.594-2.143-0.594c-2.953,0-3.69,2.646-3.781,6.032
					c0.36-1.278,1.549-2.233,3.133-2.233c1.927,0,3.331,1.387,3.331,3.494C29.18,13.301,27.632,14.652,25.759,14.652z M25.759,8.26
					c-1.53,0-2.791,1.08-2.791,2.845c0,1.729,1.117,3.007,2.755,3.007c1.621,0,2.846-1.099,2.846-2.898
					C28.568,9.448,27.487,8.26,25.759,8.26z"/>
				<path class="st0" d="M33.841,14.652c-1.044,0-2.143-0.396-2.736-0.9v-0.612c0.63,0.505,1.602,0.937,2.719,0.937
					c1.71,0,2.971-1.044,2.971-2.917c0-1.692-1.08-2.719-2.719-2.719c-0.738,0-1.333,0.216-1.692,0.541l-0.324-0.396l4.303-4.429
					H31.14V3.597h6.141v0.36l-4.052,4.105c0.216-0.054,0.559-0.144,0.883-0.144c2.214,0,3.295,1.584,3.295,3.259
					C37.406,13.337,35.821,14.652,33.841,14.652z"/>
				<path class="st0" d="M42.733,3.345c1.71,0,3.583,1.098,3.583,5.005c0,3.943-1.44,6.302-4.304,6.302
					c-0.864,0-1.746-0.27-2.16-0.558v-0.612c0.504,0.306,1.332,0.594,2.143,0.594c2.952,0,3.69-2.646,3.781-6.032
					c-0.36,1.278-1.549,2.233-3.134,2.233c-1.926,0-3.331-1.387-3.331-3.493C39.312,4.695,40.86,3.345,42.733,3.345z M42.733,9.736
					c1.53,0,2.79-1.08,2.79-2.845c0-1.729-1.116-3.007-2.755-3.007c-1.62,0-2.845,1.098-2.845,2.899
					C39.924,8.548,41.005,9.736,42.733,9.736z"/>
				<path class="st0" d="M48.258,14.4v-0.864h0.864V14.4H48.258z"/>
				<path class="st0" d="M55.188,14.652c-1.71,0-3.583-1.099-3.583-5.005c0-3.943,1.44-6.302,4.304-6.302
					c0.864,0,1.746,0.27,2.16,0.558v0.612c-0.504-0.306-1.332-0.594-2.143-0.594c-2.953,0-3.69,2.646-3.781,6.032
					c0.36-1.278,1.549-2.233,3.133-2.233c1.927,0,3.331,1.387,3.331,3.494C58.609,13.301,57.062,14.652,55.188,14.652z M55.188,8.26
					c-1.53,0-2.791,1.08-2.791,2.845c0,1.729,1.117,3.007,2.755,3.007c1.621,0,2.846-1.099,2.846-2.898
					C57.998,9.448,56.917,8.26,55.188,8.26z"/>
				<path class="st0" d="M64.171,14.652c-1.944,0-3.655-1.225-3.655-3.15c0-1.711,1.225-2.827,2.701-3.079
					c-1.171-0.252-2.071-1.243-2.071-2.485c0-1.621,1.44-2.593,3.025-2.593c1.584,0,3.024,0.972,3.024,2.593
					c0,1.242-0.882,2.25-2.052,2.485c1.44,0.234,2.7,1.368,2.7,3.079C67.844,13.427,66.134,14.652,64.171,14.652z M64.171,8.728
					c-1.603,0-3.043,0.99-3.043,2.719c0,1.639,1.423,2.665,3.043,2.665c1.639,0,3.061-1.026,3.061-2.665
					C67.231,9.718,65.791,8.728,64.171,8.728z M64.171,3.867c-1.278,0-2.431,0.756-2.431,2.125c0,1.296,1.17,2.179,2.431,2.179
					c1.278,0,2.431-0.882,2.431-2.179C66.602,4.623,65.467,3.867,64.171,3.867z"/>
				<path class="st0" d="M73.692,14.652c-2.179,0-3.816-2.106-3.816-5.653c0-3.511,1.638-5.654,3.816-5.654
					c2.197,0,3.817,2.143,3.817,5.654C77.51,12.545,75.89,14.652,73.692,14.652z M73.692,3.903c-1.818,0-3.205,1.782-3.205,5.096
					c0,3.331,1.387,5.096,3.205,5.096c1.837,0,3.205-1.765,3.205-5.096C76.897,5.685,75.529,3.903,73.692,3.903z"/>
				<path class="st0" d="M82.854,3.345c1.711,0,3.583,1.098,3.583,5.005c0,3.943-1.44,6.302-4.303,6.302
					c-0.864,0-1.747-0.27-2.161-0.558v-0.612c0.504,0.306,1.332,0.594,2.143,0.594c2.953,0,3.691-2.646,3.781-6.032
					c-0.36,1.278-1.549,2.233-3.133,2.233c-1.927,0-3.331-1.387-3.331-3.493C79.434,4.695,80.982,3.345,82.854,3.345z M82.854,9.736
					c1.53,0,2.791-1.08,2.791-2.845c0-1.729-1.116-3.007-2.755-3.007c-1.62,0-2.845,1.098-2.845,2.899
					C80.046,8.548,81.126,9.736,82.854,9.736z"/>
			</g>
		</g>
		<g>
			<g>
				<path class="st0" d="M1.297,46.132V35.33H7.04v0.558H1.909v4.285h4.23v0.559h-4.23v4.843H7.04v0.559H1.297z"/>
				<path class="st0" d="M14.006,46.132v-3.565c0-1.729-0.648-2.25-1.765-2.25s-2.358,1.098-2.358,2.341v3.475H9.288v-6.14h0.54
					l0.036,1.422c0.414-0.954,1.495-1.638,2.503-1.638c1.44,0,2.232,0.81,2.232,2.754v3.602H14.006z"/>
				<path class="st0" d="M19.675,49.715c-0.882,0-1.927-0.342-2.431-0.685v-0.54c0.612,0.378,1.549,0.685,2.485,0.685
					c1.17,0,2.557-0.559,2.557-2.898v-1.459c-0.522,1.026-1.477,1.53-2.575,1.53c-1.692,0-3.024-1.351-3.024-3.295
					c0-1.962,1.332-3.276,3.024-3.276c1.099,0,2.07,0.521,2.593,1.548l0.036-1.332h0.54v6.248
					C22.88,49.103,21.079,49.715,19.675,49.715z M19.801,45.827c1.369,0,2.521-1.009,2.521-2.773s-1.152-2.755-2.521-2.755
					c-1.386,0-2.521,1.009-2.521,2.755C17.28,44.8,18.415,45.827,19.801,45.827z"/>
				<path class="st0" d="M25.362,46.132V35.33h0.594v10.803H25.362z"/>
				<path class="st0" d="M33.41,42.693h-4.718c0,0-0.019,0.253-0.019,0.324c0,1.404,0.685,2.81,2.72,2.81
					c0.737,0,1.548-0.36,1.998-0.738v0.521c-0.486,0.45-1.296,0.721-2.269,0.721c-1.801,0-3.043-1.333-3.043-3.313
					c0-2.07,1.458-3.24,2.863-3.24c1.386,0,2.502,0.972,2.502,2.34C33.445,42.261,33.428,42.585,33.41,42.693z M32.869,41.955
					c-0.018-0.918-0.792-1.692-1.891-1.692c-0.99,0-1.926,0.595-2.25,1.981h4.141V41.955z"/>
				<path class="st0" d="M38.251,49.715c-0.883,0-1.927-0.342-2.431-0.685v-0.54c0.612,0.378,1.548,0.685,2.484,0.685
					c1.17,0,2.557-0.559,2.557-2.898v-1.459c-0.522,1.026-1.477,1.53-2.574,1.53c-1.693,0-3.025-1.351-3.025-3.295
					c0-1.962,1.332-3.276,3.025-3.276c1.098,0,2.07,0.521,2.593,1.548l0.035-1.332h0.541v6.248
					C41.456,49.103,39.655,49.715,38.251,49.715z M38.377,45.827c1.368,0,2.521-1.009,2.521-2.773s-1.152-2.755-2.521-2.755
					c-1.387,0-2.521,1.009-2.521,2.755C35.856,44.8,36.99,45.827,38.377,45.827z"/>
				<path class="st0" d="M44.532,42.477v3.655h-0.595v-6.14h0.54l0.036,1.351c0.433-1.009,1.477-1.549,2.341-1.566v0.63
					C45.666,40.317,44.532,41.289,44.532,42.477z"/>
				<path class="st0" d="M51.085,39.777c1.098,0,2.07,0.521,2.593,1.548l0.035-1.332h0.541v6.14h-0.541L53.678,44.8
					c-0.522,1.026-1.495,1.548-2.593,1.548c-1.693,0-3.025-1.351-3.025-3.295C48.06,41.091,49.392,39.777,51.085,39.777z
					 M51.175,45.827c1.368,0,2.521-1.009,2.521-2.773s-1.152-2.755-2.521-2.755c-1.387,0-2.521,1.009-2.521,2.755
					C48.654,44.8,49.788,45.827,51.175,45.827z"/>
				<path class="st0" d="M59.904,46.348c-1.098,0-2.053-0.504-2.574-1.53v4.825h-0.595v-9.65h0.54l0.019,1.386
					c0.486-1.044,1.513-1.602,2.61-1.602c1.692,0,3.025,1.314,3.025,3.276C62.93,44.998,61.597,46.348,59.904,46.348z
					 M59.814,40.298c-1.368,0-2.521,0.99-2.521,2.755s1.152,2.773,2.521,2.773c1.387,0,2.521-1.026,2.521-2.773
					C62.335,41.307,61.201,40.298,59.814,40.298z"/>
				<path class="st0" d="M69.751,46.132v-3.565c0-1.729-0.648-2.25-1.765-2.25s-2.358,1.098-2.358,2.341v3.475h-0.595V35.33h0.595
					v6.067c0.414-0.954,1.477-1.62,2.484-1.62c1.44,0,2.232,0.81,2.232,2.754v3.602H69.751z"/>
				<path class="st0" d="M72.81,37.994v-0.936h0.594v0.936H72.81z M72.81,46.132v-6.14h0.594v6.14H72.81z"/>
				<path class="st0" d="M78.66,46.348c-1.729,0-3.133-1.296-3.133-3.295c0-1.98,1.404-3.276,3.133-3.276
					c0.721,0,1.387,0.144,1.999,0.576v0.558c-0.576-0.414-1.297-0.612-1.909-0.612c-1.494,0-2.629,1.026-2.629,2.755
					s1.135,2.773,2.629,2.773c0.612,0,1.351-0.198,1.909-0.595v0.559C80.064,46.205,79.381,46.348,78.66,46.348z"/>
				<path class="st0" d="M84.348,46.348c-0.954,0-1.765-0.396-2.053-0.558l0.108-0.522c0.45,0.271,1.188,0.559,1.963,0.559
					c0.954,0,1.603-0.379,1.603-1.278c0-0.703-0.505-1.009-1.711-1.351c-1.188-0.324-1.782-0.919-1.782-1.765
					c0-0.937,0.72-1.656,2.034-1.656c0.721,0,1.423,0.306,1.675,0.432l-0.108,0.504c-0.432-0.233-1.044-0.414-1.566-0.414
					c-1.044,0-1.44,0.469-1.44,1.099c0,0.72,0.486,1.008,1.44,1.296c1.278,0.343,2.053,0.9,2.053,1.783
					C86.562,45.718,85.608,46.348,84.348,46.348z"/>
				<path class="st0" d="M95.905,45.754c-0.702,0-1.062-0.469-1.17-1.009c-0.36,0.576-1.062,1.081-1.765,1.081
					c-1.495,0-2.179-1.513-1.854-3.296c0.323-1.8,1.8-3.259,3.295-3.259c0.468,0,0.756,0.091,1.134,0.288l0.504,0.019l-0.81,4.591
					c-0.126,0.666,0.18,1.207,0.81,1.207c1.243,0,2.773-1.854,2.773-3.998c0-2.574-2.017-4.356-4.537-4.356
					c-3.169,0-5.727,2.719-5.727,5.905c0,2.971,2.323,5.149,5.222,5.149c1.297,0,2.611-0.36,3.907-1.224l0.145,0.287
					c-1.404,0.991-2.827,1.297-4.088,1.297c-3.187,0-5.707-2.413-5.707-5.51c0-3.421,2.791-6.319,6.229-6.319
					c2.773,0,4.951,1.962,4.951,4.771C99.218,43.702,97.399,45.754,95.905,45.754z M94.393,39.668c-1.278,0-2.484,1.278-2.755,2.898
					c-0.27,1.566,0.217,2.827,1.459,2.827c0.774,0,1.584-0.792,1.71-1.477l0.702-3.907C95.167,39.812,94.896,39.668,94.393,39.668z"
					/>
				<path class="st0" d="M103.733,49.715c-0.882,0-1.927-0.342-2.431-0.685v-0.54c0.612,0.378,1.549,0.685,2.485,0.685
					c1.17,0,2.557-0.559,2.557-2.898v-1.459c-0.522,1.026-1.477,1.53-2.575,1.53c-1.692,0-3.024-1.351-3.024-3.295
					c0-1.962,1.332-3.276,3.024-3.276c1.099,0,2.07,0.521,2.593,1.548l0.036-1.332h0.54v6.248
					C106.938,49.103,105.138,49.715,103.733,49.715z M103.859,45.827c1.369,0,2.521-1.009,2.521-2.773s-1.152-2.755-2.521-2.755
					c-1.386,0-2.521,1.009-2.521,2.755C101.339,44.8,102.474,45.827,103.859,45.827z"/>
				<path class="st0" d="M118.1,46.132v-3.781c0-1.603-0.631-2.034-1.566-2.034c-1.135,0-2.179,1.188-2.179,2.305v3.511h-0.595
					v-3.781c0-1.603-0.63-2.034-1.584-2.034c-1.116,0-2.161,1.188-2.161,2.305v3.511h-0.594v-6.14h0.54l0.036,1.386
					c0.432-0.936,1.296-1.602,2.305-1.602c1.188,0,1.746,0.647,1.962,1.656c0.45-0.973,1.387-1.656,2.396-1.656
					c1.458,0,2.034,0.972,2.034,2.502v3.854H118.1z"/>
				<path class="st0" d="M123.804,39.777c1.099,0,2.071,0.521,2.593,1.548l0.036-1.332h0.54v6.14h-0.54l-0.036-1.332
					c-0.521,1.026-1.494,1.548-2.593,1.548c-1.692,0-3.024-1.351-3.024-3.295C120.779,41.091,122.111,39.777,123.804,39.777z
					 M123.895,45.827c1.368,0,2.521-1.009,2.521-2.773s-1.152-2.755-2.521-2.755c-1.387,0-2.521,1.009-2.521,2.755
					C121.373,44.8,122.508,45.827,123.895,45.827z"/>
				<path class="st0" d="M129.455,37.994v-0.936h0.594v0.936H129.455z M129.455,46.132v-6.14h0.594v6.14H129.455z"/>
				<path class="st0" d="M132.532,46.132V35.33h0.594v10.803H132.532z"/>
				<path class="st0" d="M135.736,46.132v-0.864h0.864v0.864H135.736z"/>
				<path class="st0" d="M141.982,46.348c-1.729,0-3.133-1.296-3.133-3.295c0-1.98,1.404-3.276,3.133-3.276
					c0.721,0,1.387,0.144,1.999,0.576v0.558c-0.576-0.414-1.297-0.612-1.908-0.612c-1.495,0-2.629,1.026-2.629,2.755
					s1.134,2.773,2.629,2.773c0.611,0,1.35-0.198,1.908-0.595v0.559C143.387,46.205,142.703,46.348,141.982,46.348z"/>
				<path class="st0" d="M148.859,46.367c-1.818,0-3.24-1.404-3.24-3.313c0-1.891,1.422-3.295,3.24-3.295
					c1.837,0,3.241,1.404,3.241,3.295C152.101,44.962,150.696,46.367,148.859,46.367z M148.859,40.281
					c-1.458,0-2.646,1.098-2.646,2.772c0,1.692,1.188,2.791,2.646,2.791c1.459,0,2.647-1.099,2.647-2.791
					C151.507,41.378,150.318,40.281,148.859,40.281z"/>
				<path class="st0" d="M162.829,46.132v-3.781c0-1.603-0.63-2.034-1.566-2.034c-1.135,0-2.179,1.188-2.179,2.305v3.511h-0.595
					v-3.781c0-1.603-0.63-2.034-1.584-2.034c-1.116,0-2.161,1.188-2.161,2.305v3.511h-0.594v-6.14h0.54l0.036,1.386
					c0.432-0.936,1.297-1.602,2.305-1.602c1.188,0,1.746,0.647,1.963,1.656c0.45-0.973,1.386-1.656,2.395-1.656
					c1.458,0,2.034,0.972,2.034,2.502v3.854H162.829z"/>
			</g>
		</g>
		<g>
			<g>
				<path class="st0" d="M6.122,26.489H1.404c0,0-0.018,0.253-0.018,0.324c0,1.404,0.685,2.81,2.719,2.81
					c0.738,0,1.549-0.36,1.999-0.738v0.521c-0.486,0.45-1.297,0.721-2.27,0.721c-1.8,0-3.042-1.333-3.042-3.313
					c0-2.07,1.458-3.24,2.862-3.24c1.387,0,2.503,0.972,2.503,2.34C6.158,26.057,6.14,26.381,6.122,26.489z M5.582,25.751
					c-0.019-0.919-0.792-1.693-1.891-1.693c-0.99,0-1.927,0.595-2.251,1.98h4.142V25.751z"/>
				<path class="st0" d="M13.07,29.928v-3.565c0-1.729-0.648-2.25-1.765-2.25s-2.358,1.098-2.358,2.341v3.475H8.353v-6.14h0.54
					l0.036,1.422c0.414-0.954,1.495-1.638,2.503-1.638c1.44,0,2.232,0.81,2.232,2.755v3.601H13.07z"/>
				<path class="st0" d="M18.739,33.511c-0.882,0-1.927-0.342-2.431-0.685v-0.54c0.612,0.379,1.549,0.685,2.485,0.685
					c1.17,0,2.557-0.559,2.557-2.899v-1.458c-0.522,1.026-1.477,1.53-2.575,1.53c-1.692,0-3.024-1.351-3.024-3.295
					c0-1.963,1.332-3.276,3.024-3.276c1.099,0,2.07,0.521,2.593,1.548l0.036-1.332h0.54v6.248
					C21.944,32.899,20.144,33.511,18.739,33.511z M18.865,29.623c1.369,0,2.521-1.009,2.521-2.773s-1.152-2.755-2.521-2.755
					c-1.386,0-2.521,1.009-2.521,2.755C16.345,28.596,17.479,29.623,18.865,29.623z"/>
				<path class="st0" d="M24.427,29.928V19.125h0.594v10.804H24.427z"/>
				<path class="st0" d="M32.474,26.489h-4.718c0,0-0.018,0.253-0.018,0.324c0,1.404,0.685,2.81,2.719,2.81
					c0.738,0,1.549-0.36,1.999-0.738v0.521c-0.486,0.45-1.297,0.721-2.27,0.721c-1.8,0-3.042-1.333-3.042-3.313
					c0-2.07,1.458-3.24,2.862-3.24c1.387,0,2.503,0.972,2.503,2.34C32.51,26.057,32.491,26.381,32.474,26.489z M31.934,25.751
					c-0.019-0.919-0.792-1.693-1.891-1.693c-0.99,0-1.927,0.595-2.251,1.98h4.142V25.751z"/>
				<path class="st0" d="M37.315,33.511c-0.883,0-1.927-0.342-2.431-0.685v-0.54c0.612,0.379,1.548,0.685,2.484,0.685
					c1.17,0,2.557-0.559,2.557-2.899v-1.458c-0.522,1.026-1.477,1.53-2.574,1.53c-1.693,0-3.025-1.351-3.025-3.295
					c0-1.963,1.332-3.276,3.025-3.276c1.098,0,2.07,0.521,2.593,1.548l0.035-1.332h0.541v6.248
					C40.521,32.899,38.72,33.511,37.315,33.511z M37.441,29.623c1.368,0,2.521-1.009,2.521-2.773s-1.152-2.755-2.521-2.755
					c-1.387,0-2.521,1.009-2.521,2.755C34.921,28.596,36.055,29.623,37.441,29.623z"/>
				<path class="st0" d="M43.597,26.273v3.655h-0.595v-6.14h0.54l0.036,1.351c0.433-1.009,1.477-1.549,2.341-1.566v0.63
					C44.73,24.113,43.597,25.084,43.597,26.273z"/>
				<path class="st0" d="M50.149,23.573c1.098,0,2.07,0.521,2.593,1.548l0.035-1.332h0.541v6.14h-0.541l-0.035-1.332
					c-0.522,1.026-1.495,1.548-2.593,1.548c-1.693,0-3.025-1.351-3.025-3.295C47.124,24.886,48.456,23.573,50.149,23.573z
					 M50.239,29.623c1.368,0,2.521-1.009,2.521-2.773s-1.152-2.755-2.521-2.755c-1.387,0-2.521,1.009-2.521,2.755
					C47.719,28.596,48.853,29.623,50.239,29.623z"/>
				<path class="st0" d="M58.969,30.144c-1.098,0-2.053-0.504-2.574-1.53v4.825H55.8v-9.65h0.54l0.019,1.387
					c0.486-1.045,1.513-1.603,2.61-1.603c1.692,0,3.025,1.313,3.025,3.276C61.994,28.793,60.661,30.144,58.969,30.144z
					 M58.879,24.094c-1.368,0-2.521,0.99-2.521,2.755s1.152,2.773,2.521,2.773c1.387,0,2.521-1.026,2.521-2.773
					C61.399,25.103,60.266,24.094,58.879,24.094z"/>
				<path class="st0" d="M68.815,29.928v-3.565c0-1.729-0.648-2.25-1.765-2.25s-2.358,1.098-2.358,2.341v3.475h-0.595V19.125h0.595
					v6.068c0.414-0.954,1.477-1.62,2.484-1.62c1.44,0,2.232,0.81,2.232,2.755v3.601H68.815z"/>
				<path class="st0" d="M71.874,21.79v-0.937h0.594v0.937H71.874z M71.874,29.928v-6.14h0.594v6.14H71.874z"/>
				<path class="st0" d="M77.725,30.144c-1.729,0-3.133-1.296-3.133-3.295c0-1.98,1.404-3.276,3.133-3.276
					c0.72,0,1.386,0.144,1.998,0.576v0.558c-0.576-0.414-1.296-0.612-1.908-0.612c-1.494,0-2.629,1.026-2.629,2.755
					s1.135,2.773,2.629,2.773c0.612,0,1.351-0.198,1.908-0.595v0.559C79.129,30,78.444,30.144,77.725,30.144z"/>
				<path class="st0" d="M83.412,30.144c-0.954,0-1.765-0.396-2.053-0.558l0.108-0.522c0.45,0.271,1.188,0.559,1.963,0.559
					c0.954,0,1.603-0.379,1.603-1.279c0-0.702-0.505-1.008-1.711-1.35c-1.188-0.324-1.782-0.919-1.782-1.765
					c0-0.937,0.72-1.656,2.034-1.656c0.721,0,1.423,0.306,1.675,0.432l-0.108,0.504c-0.432-0.233-1.044-0.414-1.566-0.414
					c-1.044,0-1.44,0.469-1.44,1.099c0,0.72,0.486,1.008,1.44,1.296c1.278,0.343,2.053,0.9,2.053,1.783
					C85.627,29.514,84.673,30.144,83.412,30.144z"/>
				<path class="st0" d="M87.804,29.928v-0.864h0.864v0.864H87.804z"/>
				<path class="st0" d="M94.05,30.144c-1.729,0-3.133-1.296-3.133-3.295c0-1.98,1.404-3.276,3.133-3.276
					c0.721,0,1.387,0.144,1.999,0.576v0.558c-0.576-0.414-1.297-0.612-1.909-0.612c-1.494,0-2.629,1.026-2.629,2.755
					s1.135,2.773,2.629,2.773c0.612,0,1.351-0.198,1.909-0.595v0.559C95.454,30,94.771,30.144,94.05,30.144z"/>
				<path class="st0" d="M100.926,30.163c-1.818,0-3.241-1.404-3.241-3.313c0-1.891,1.423-3.295,3.241-3.295
					c1.837,0,3.241,1.404,3.241,3.295C104.167,28.758,102.763,30.163,100.926,30.163z M100.926,24.077
					c-1.458,0-2.646,1.099-2.646,2.772c0,1.692,1.188,2.791,2.646,2.791s2.646-1.099,2.646-2.791
					C103.572,25.175,102.384,24.077,100.926,24.077z"/>
				<path class="st0" d="M114.896,29.928v-3.781c0-1.603-0.631-2.034-1.566-2.034c-1.135,0-2.179,1.188-2.179,2.305v3.511h-0.595
					v-3.781c0-1.603-0.63-2.034-1.584-2.034c-1.116,0-2.161,1.188-2.161,2.305v3.511h-0.594v-6.14h0.54l0.036,1.387
					c0.432-0.937,1.296-1.603,2.305-1.603c1.188,0,1.746,0.647,1.962,1.656c0.45-0.973,1.387-1.656,2.396-1.656
					c1.458,0,2.034,0.972,2.034,2.502v3.854H114.896z"/>
			</g>
		</g>
	</g>
</g>
</svg>