<!-- Generator: Adobe Illustrator 21.0.0, SVG Export Plug-In  -->
<svg version="1.1"
	 xmlns="http://www.w3.org/2000/svg" xmlns:xlink="http://www.w3.org/1999/xlink" xmlns:a="http://ns.adobe.com/AdobeSVGViewerExtensions/3.0/"
	 x="0px" y="0px" width="217.775px" height="122.873px" viewBox="0 0 217.775 122.873"
	 style="enable-background:new 0 0 217.775 122.873;" xml:space="preserve">
<style type="text/css">
	.st0{fill:none;}
	.st1{fill:#414042;}
	.st2{font-family:'MrEavesModOT-Light';}
	.st3{font-size:18px;}
</style>
<defs>
</defs>
<g>
	<rect x="0" y="3.6" class="st0" width="217.775" height="119.273"/>
	<path class="st1" d="M6.14,14.634c-2.917,0-5.365-2.088-5.365-5.618c0-3.547,2.448-5.653,5.365-5.653
		c1.206,0,2.575,0.414,3.421,1.026v0.63c-0.864-0.63-1.998-1.08-3.421-1.08c-2.719,0-4.753,1.962-4.753,5.077
		c0,3.097,2.034,5.042,4.753,5.042c1.423,0,2.557-0.432,3.421-1.062v0.63C8.715,14.238,7.346,14.634,6.14,14.634z"/>
	<path class="st1" d="M14.544,14.634c-1.818,0-3.241-1.404-3.241-3.313c0-1.891,1.423-3.295,3.241-3.295
		c1.837,0,3.241,1.404,3.241,3.295C17.785,13.229,16.381,14.634,14.544,14.634z M14.544,8.548c-1.458,0-2.646,1.098-2.646,2.772
		c0,1.693,1.188,2.791,2.646,2.791c1.459,0,2.647-1.098,2.647-2.791C17.191,9.646,16.003,8.548,14.544,8.548z"/>
	<path class="st1" d="M28.515,14.4v-3.781c0-1.603-0.63-2.035-1.566-2.035c-1.135,0-2.179,1.188-2.179,2.305V14.4h-0.595v-3.781
		c0-1.603-0.63-2.035-1.584-2.035c-1.116,0-2.161,1.188-2.161,2.305V14.4h-0.594V8.26h0.54l0.036,1.386
		c0.432-0.936,1.297-1.603,2.305-1.603c1.188,0,1.746,0.648,1.963,1.657c0.45-0.973,1.386-1.657,2.395-1.657
		c1.458,0,2.034,0.972,2.034,2.503V14.4H28.515z"/>
	<path class="st1" d="M34.74,14.616c-1.099,0-2.053-0.504-2.575-1.53v4.826h-0.594V8.26h0.54l0.019,1.386
		c0.485-1.044,1.512-1.603,2.61-1.603c1.692,0,3.025,1.314,3.025,3.277C37.766,13.266,36.433,14.616,34.74,14.616z M34.65,8.566
		c-1.368,0-2.521,0.991-2.521,2.755c0,1.765,1.152,2.773,2.521,2.773c1.387,0,2.521-1.026,2.521-2.773
		C37.171,9.575,36.037,8.566,34.65,8.566z"/>
	<path class="st1" d="M40.445,8.26v3.565c0,1.729,0.648,2.25,1.765,2.25s2.358-1.098,2.358-2.341V8.26h0.595v6.14h-0.54
		l-0.036-1.422c-0.414,0.954-1.495,1.638-2.503,1.638c-1.44,0-2.232-0.81-2.232-2.754V8.26H40.445z"/>
	<path class="st1" d="M48.941,8.764V14.4h-0.594V8.764h-1.332V8.26h1.332V6.189h0.594V8.26h1.351v0.504H48.941z"/>
	<path class="st1" d="M57.114,10.961h-4.718c0,0-0.018,0.252-0.018,0.324c0,1.404,0.684,2.809,2.719,2.809
		c0.738,0,1.548-0.36,1.998-0.738v0.522c-0.486,0.45-1.296,0.72-2.269,0.72c-1.801,0-3.043-1.333-3.043-3.313
		c0-2.071,1.459-3.241,2.863-3.241c1.386,0,2.503,0.972,2.503,2.341C57.15,10.529,57.132,10.853,57.114,10.961z M56.574,10.223
		c-0.019-0.918-0.793-1.692-1.891-1.692c-0.99,0-1.927,0.594-2.251,1.98h4.142V10.223z"/>
	<path class="st1" d="M59.938,10.745V14.4h-0.594V8.26h0.54l0.036,1.35c0.432-1.008,1.477-1.548,2.341-1.566v0.63
		C61.072,8.584,59.938,9.557,59.938,10.745z"/>
	<path class="st1" d="M68.615,8.764V14.4h-0.595V8.764h-1.332V8.26h1.332V6.189h0.595V8.26h1.35v0.504H68.615z"/>
	<path class="st1" d="M76.787,10.961h-4.718c0,0-0.018,0.252-0.018,0.324c0,1.404,0.684,2.809,2.719,2.809
		c0.738,0,1.548-0.36,1.998-0.738v0.522c-0.485,0.45-1.296,0.72-2.269,0.72c-1.801,0-3.043-1.333-3.043-3.313
		c0-2.071,1.459-3.241,2.863-3.241c1.387,0,2.503,0.972,2.503,2.341C76.823,10.529,76.805,10.853,76.787,10.961z M76.247,10.223
		c-0.019-0.918-0.793-1.692-1.891-1.692c-0.99,0-1.927,0.594-2.251,1.98h4.142V10.223z"/>
	<path class="st1" d="M81.79,14.616c-1.729,0-3.133-1.296-3.133-3.295c0-1.98,1.404-3.277,3.133-3.277
		c0.721,0,1.387,0.144,1.999,0.576v0.558c-0.576-0.414-1.297-0.612-1.908-0.612c-1.495,0-2.629,1.026-2.629,2.755
		s1.134,2.773,2.629,2.773c0.611,0,1.35-0.198,1.908-0.594v0.558C83.195,14.472,82.511,14.616,81.79,14.616z"/>
	<path class="st1" d="M90.575,14.4v-3.565c0-1.729-0.648-2.251-1.765-2.251s-2.359,1.099-2.359,2.341V14.4h-0.594V3.597h0.594v6.068
		c0.414-0.954,1.477-1.621,2.485-1.621c1.44,0,2.232,0.81,2.232,2.755V14.4H90.575z"/>
	<path class="st1" d="M98.223,8.764V14.4h-0.594V8.764h-1.332V8.26h1.332V6.189h0.594V8.26h1.351v0.504H98.223z"/>
	<path class="st1" d="M102.003,8.26v3.565c0,1.729,0.648,2.25,1.765,2.25s2.358-1.098,2.358-2.341V8.26h0.595v6.14h-0.541
		l-0.035-1.422c-0.414,0.954-1.495,1.638-2.503,1.638c-1.44,0-2.232-0.81-2.232-2.754V8.26H102.003z"/>
	<path class="st1" d="M109.796,10.745V14.4h-0.594V8.26h0.54l0.036,1.35c0.433-1.008,1.477-1.548,2.341-1.566v0.63
		C110.931,8.584,109.796,9.557,109.796,10.745z"/>
	<path class="st1" d="M118.6,14.4v-3.565c0-1.729-0.648-2.251-1.765-2.251s-2.359,1.099-2.359,2.341V14.4h-0.594V8.26h0.54
		l0.036,1.422c0.414-0.955,1.494-1.639,2.503-1.639c1.44,0,2.232,0.81,2.232,2.755V14.4H118.6z"/>
	<path class="st1" d="M126.628,10.961h-4.718c0,0-0.018,0.252-0.018,0.324c0,1.404,0.684,2.809,2.719,2.809
		c0.738,0,1.548-0.36,1.998-0.738v0.522c-0.486,0.45-1.296,0.72-2.269,0.72c-1.801,0-3.043-1.333-3.043-3.313
		c0-2.071,1.459-3.241,2.863-3.241c1.386,0,2.503,0.972,2.503,2.341C126.664,10.529,126.646,10.853,126.628,10.961z M126.088,10.223
		c-0.019-0.918-0.793-1.692-1.891-1.692c-0.99,0-1.927,0.594-2.251,1.98h4.142V10.223z"/>
	<path class="st1" d="M131.504,8.044c1.099,0,2.053,0.504,2.575,1.531V3.597h0.594V14.4h-0.54l-0.018-1.386
		c-0.486,1.044-1.513,1.602-2.611,1.602c-1.692,0-3.024-1.314-3.024-3.277C128.479,9.395,129.812,8.044,131.504,8.044z
		 M131.594,14.094c1.369,0,2.521-0.99,2.521-2.755c0-1.764-1.152-2.773-2.521-2.773c-1.386,0-2.521,1.026-2.521,2.773
		S130.208,14.094,131.594,14.094z"/>
	<path class="st1" d="M145.438,14.652c-2.898,0-5.365-2.106-5.365-5.653c0-3.529,2.467-5.636,5.365-5.636
		c1.207,0,2.575,0.414,3.421,1.026v0.63c-0.864-0.63-1.998-1.08-3.421-1.08c-2.719,0-4.753,1.962-4.753,5.06
		c0,3.097,2.034,5.077,4.753,5.077c1.242,0,2.323-0.306,3.259-0.846V9.971h-2.214V9.413h2.826v4.159
		C148.427,13.986,147.221,14.652,145.438,14.652z"/>
	<path class="st1" d="M152.491,10.745V14.4h-0.594V8.26h0.54l0.036,1.35c0.433-1.008,1.477-1.548,2.341-1.566v0.63
		C153.626,8.584,152.491,9.557,152.491,10.745z"/>
	<path class="st1" d="M159.044,8.044c1.099,0,2.071,0.522,2.593,1.548l0.036-1.332h0.54v6.14h-0.54l-0.036-1.333
		c-0.521,1.026-1.494,1.548-2.593,1.548c-1.692,0-3.024-1.35-3.024-3.295C156.02,9.358,157.352,8.044,159.044,8.044z
		 M159.135,14.094c1.368,0,2.521-1.008,2.521-2.773c0-1.764-1.152-2.755-2.521-2.755c-1.387,0-2.521,1.009-2.521,2.755
		C156.613,13.067,157.748,14.094,159.135,14.094z"/>
	<path class="st1" d="M167.865,14.616c-1.099,0-2.053-0.504-2.575-1.53v4.826h-0.594V8.26h0.54l0.019,1.386
		c0.485-1.044,1.512-1.603,2.61-1.603c1.692,0,3.025,1.314,3.025,3.277C170.891,13.266,169.558,14.616,167.865,14.616z
		 M167.775,8.566c-1.368,0-2.521,0.991-2.521,2.755c0,1.765,1.152,2.773,2.521,2.773c1.387,0,2.521-1.026,2.521-2.773
		C170.296,9.575,169.162,8.566,167.775,8.566z"/>
	<path class="st1" d="M177.712,14.4v-3.565c0-1.729-0.648-2.251-1.765-2.251s-2.359,1.099-2.359,2.341V14.4h-0.594V3.597h0.594
		v6.068c0.414-0.954,1.477-1.621,2.485-1.621c1.44,0,2.232,0.81,2.232,2.755V14.4H177.712z"/>
	<path class="st1" d="M180.77,6.261V5.325h0.594v0.936H180.77z M180.77,14.4V8.26h0.594v6.14H180.77z"/>
	<path class="st1" d="M186.62,14.616c-1.729,0-3.133-1.296-3.133-3.295c0-1.98,1.404-3.277,3.133-3.277
		c0.721,0,1.387,0.144,1.999,0.576v0.558c-0.576-0.414-1.297-0.612-1.908-0.612c-1.495,0-2.629,1.026-2.629,2.755
		s1.134,2.773,2.629,2.773c0.611,0,1.35-0.198,1.908-0.594v0.558C188.025,14.472,187.341,14.616,186.62,14.616z"/>
	<path class="st1" d="M9.867,30.616c0,2.971-1.639,5.384-5.6,5.384H1.297V25.197h2.971C8.229,25.197,9.867,27.646,9.867,30.616z
		 M1.908,25.773v9.651h2.377c3.709,0,4.97-2.269,4.97-4.808c0-2.557-1.261-4.843-4.97-4.843H1.908z"/>
	<path class="st1" d="M16.922,32.561h-4.718c0,0-0.018,0.252-0.018,0.324c0,1.404,0.684,2.809,2.719,2.809
		c0.738,0,1.548-0.36,1.998-0.738v0.522c-0.485,0.45-1.296,0.72-2.269,0.72c-1.801,0-3.043-1.333-3.043-3.313
		c0-2.071,1.459-3.241,2.863-3.241c1.387,0,2.503,0.972,2.503,2.341C16.958,32.129,16.939,32.453,16.922,32.561z M16.382,31.823
		c-0.019-0.918-0.793-1.692-1.891-1.692c-0.99,0-1.927,0.594-2.251,1.98h4.142V31.823z"/>
	<path class="st1" d="M20.772,36.216c-0.954,0-1.765-0.396-2.052-0.559l0.107-0.522c0.45,0.27,1.188,0.558,1.963,0.558
		c0.954,0,1.603-0.378,1.603-1.278c0-0.702-0.505-1.008-1.711-1.351c-1.188-0.324-1.782-0.918-1.782-1.764
		c0-0.937,0.72-1.657,2.034-1.657c0.721,0,1.423,0.306,1.675,0.432l-0.108,0.504c-0.432-0.234-1.044-0.414-1.566-0.414
		c-1.044,0-1.44,0.468-1.44,1.098c0,0.72,0.486,1.008,1.44,1.296c1.278,0.342,2.053,0.9,2.053,1.782
		C22.987,35.586,22.033,36.216,20.772,36.216z"/>
	<path class="st1" d="M25.038,27.862v-0.937h0.594v0.937H25.038z M25.038,36v-6.14h0.594V36H25.038z"/>
	<path class="st1" d="M30.726,39.583c-0.882,0-1.926-0.342-2.431-0.684v-0.54c0.612,0.378,1.549,0.684,2.485,0.684
		c1.17,0,2.557-0.558,2.557-2.899v-1.458c-0.522,1.026-1.477,1.531-2.575,1.531c-1.692,0-3.024-1.351-3.024-3.295
		c0-1.962,1.332-3.277,3.024-3.277c1.099,0,2.071,0.522,2.593,1.548l0.036-1.332h0.54v6.248
		C33.931,38.971,32.131,39.583,30.726,39.583z M30.852,35.694c1.369,0,2.521-1.008,2.521-2.773c0-1.764-1.152-2.754-2.521-2.754
		c-1.386,0-2.521,1.008-2.521,2.754S29.466,35.694,30.852,35.694z"/>
	<path class="st1" d="M41.132,36v-3.565c0-1.729-0.648-2.251-1.765-2.251s-2.359,1.099-2.359,2.341V36h-0.594v-6.14h0.54
		l0.036,1.422c0.414-0.955,1.494-1.639,2.503-1.639c1.44,0,2.232,0.811,2.232,2.755V36H41.132z"/>
	<path class="st1" d="M49.159,32.561h-4.718c0,0-0.018,0.252-0.018,0.324c0,1.404,0.684,2.809,2.719,2.809
		c0.738,0,1.548-0.36,1.998-0.738v0.522c-0.486,0.45-1.296,0.72-2.269,0.72c-1.801,0-3.043-1.333-3.043-3.313
		c0-2.071,1.459-3.241,2.863-3.241c1.386,0,2.503,0.972,2.503,2.341C49.195,32.129,49.177,32.453,49.159,32.561z M48.619,31.823
		c-0.019-0.918-0.793-1.692-1.891-1.692c-0.99,0-1.927,0.594-2.251,1.98h4.142V31.823z"/>
	<path class="st1" d="M51.982,32.345V36h-0.594v-6.14h0.54l0.036,1.35c0.432-1.008,1.477-1.548,2.341-1.566v0.63
		C53.117,30.184,51.982,31.157,51.982,32.345z"/>
	<path class="st1" d="M55.476,36v-0.864h0.864V36H55.476z"/>
	<path class="st1" d="M65.538,31.553h-2.539V36h-0.612V25.197h3.151c2.196,0,3.151,1.53,3.151,3.187
		C68.689,30.04,67.734,31.553,65.538,31.553z M62.999,30.995h2.539c1.908,0,2.539-1.333,2.539-2.611c0-1.26-0.631-2.629-2.539-2.629
		h-2.539V30.995z"/>
	<path class="st1" d="M72.45,29.644c1.099,0,2.071,0.522,2.593,1.548l0.036-1.332h0.54V36h-0.54l-0.036-1.333
		c-0.521,1.026-1.494,1.549-2.593,1.549c-1.692,0-3.024-1.351-3.024-3.295C69.426,30.958,70.758,29.644,72.45,29.644z
		 M72.541,35.694c1.368,0,2.521-1.008,2.521-2.773c0-1.764-1.152-2.754-2.521-2.754c-1.387,0-2.521,1.008-2.521,2.754
		S71.154,35.694,72.541,35.694z"/>
	<path class="st1" d="M79.722,36.216c-0.954,0-1.765-0.396-2.052-0.559l0.107-0.522c0.45,0.27,1.188,0.558,1.963,0.558
		c0.954,0,1.603-0.378,1.603-1.278c0-0.702-0.505-1.008-1.711-1.351c-1.188-0.324-1.782-0.918-1.782-1.764
		c0-0.937,0.72-1.657,2.034-1.657c0.721,0,1.423,0.306,1.675,0.432l-0.108,0.504c-0.432-0.234-1.044-0.414-1.566-0.414
		c-1.044,0-1.44,0.468-1.44,1.098c0,0.72,0.486,1.008,1.44,1.296c1.278,0.342,2.053,0.9,2.053,1.782
		C81.937,35.586,80.982,36.216,79.722,36.216z"/>
	<path class="st1" d="M85.607,36.216c-0.954,0-1.764-0.396-2.053-0.559l0.108-0.522c0.45,0.27,1.188,0.558,1.963,0.558
		c0.954,0,1.603-0.378,1.603-1.278c0-0.702-0.504-1.008-1.711-1.351c-1.188-0.324-1.782-0.918-1.782-1.764
		c0-0.937,0.72-1.657,2.034-1.657c0.721,0,1.423,0.306,1.675,0.432l-0.108,0.504c-0.432-0.234-1.044-0.414-1.566-0.414
		c-1.044,0-1.44,0.468-1.44,1.098c0,0.72,0.486,1.008,1.44,1.296c1.278,0.342,2.053,0.9,2.053,1.782
		C87.822,35.586,86.868,36.216,85.607,36.216z"/>
	<path class="st1" d="M89.873,27.862v-0.937h0.594v0.937H89.873z M89.873,36v-6.14h0.594V36H89.873z"/>
	<path class="st1" d="M95.76,36.234c-1.818,0-3.24-1.404-3.24-3.313c0-1.89,1.422-3.295,3.24-3.295c1.837,0,3.241,1.405,3.241,3.295
		C99.001,34.83,97.597,36.234,95.76,36.234z M95.76,30.148c-1.458,0-2.646,1.098-2.646,2.772c0,1.693,1.188,2.791,2.646,2.791
		c1.459,0,2.647-1.098,2.647-2.791C98.407,31.247,97.219,30.148,95.76,30.148z"/>
	<path class="st1" d="M105.769,36v-3.565c0-1.729-0.648-2.251-1.765-2.251s-2.359,1.099-2.359,2.341V36h-0.594v-6.14h0.54
		l0.036,1.422c0.414-0.955,1.494-1.639,2.503-1.639c1.44,0,2.232,0.811,2.232,2.755V36H105.769z"/>
	<path class="st1" d="M108.754,37.962l-0.162-0.252c0.559-0.306,0.793-0.936,0.793-1.71h-0.433v-0.864h0.864v0.81
		C109.816,36.918,109.475,37.639,108.754,37.962z"/>
	<path class="st1" d="M118.367,29.644c1.099,0,2.071,0.522,2.593,1.548l0.036-1.332h0.54V36h-0.54l-0.036-1.333
		c-0.521,1.026-1.494,1.549-2.593,1.549c-1.692,0-3.024-1.351-3.024-3.295C115.343,30.958,116.675,29.644,118.367,29.644z
		 M118.457,35.694c1.369,0,2.521-1.008,2.521-2.773c0-1.764-1.152-2.754-2.521-2.754c-1.386,0-2.521,1.008-2.521,2.754
		S117.071,35.694,118.457,35.694z"/>
	<path class="st1" d="M128.736,36v-3.565c0-1.729-0.648-2.251-1.765-2.251s-2.359,1.099-2.359,2.341V36h-0.594v-6.14h0.54
		l0.036,1.422c0.414-0.955,1.494-1.639,2.503-1.639c1.44,0,2.232,0.811,2.232,2.755V36H128.736z"/>
	<path class="st1" d="M134.441,29.644c1.099,0,2.053,0.504,2.575,1.53v-5.978h0.594V36h-0.54l-0.018-1.386
		c-0.486,1.044-1.513,1.603-2.611,1.603c-1.692,0-3.024-1.314-3.024-3.277C131.417,30.995,132.749,29.644,134.441,29.644z
		 M134.531,35.694c1.369,0,2.521-0.99,2.521-2.755s-1.152-2.772-2.521-2.772c-1.386,0-2.521,1.026-2.521,2.772
		S133.146,35.694,134.531,35.694z"/>
	<path class="st1" d="M146.033,29.644c1.099,0,2.071,0.522,2.593,1.548l0.036-1.332h0.54V36h-0.54l-0.036-1.333
		c-0.521,1.026-1.494,1.549-2.593,1.549c-1.692,0-3.024-1.351-3.024-3.295C143.009,30.958,144.341,29.644,146.033,29.644z
		 M146.123,35.694c1.369,0,2.521-1.008,2.521-2.773c0-1.764-1.152-2.754-2.521-2.754c-1.386,0-2.521,1.008-2.521,2.754
		S144.737,35.694,146.123,35.694z"/>
	<path class="st1" d="M157.626,29.644c1.099,0,2.053,0.504,2.575,1.53v-5.978h0.594V36h-0.54l-0.018-1.386
		c-0.486,1.044-1.513,1.603-2.611,1.603c-1.692,0-3.024-1.314-3.024-3.277C154.602,30.995,155.934,29.644,157.626,29.644z
		 M157.717,35.694c1.368,0,2.521-0.99,2.521-2.755s-1.152-2.772-2.521-2.772c-1.387,0-2.521,1.026-2.521,2.772
		S156.33,35.694,157.717,35.694z"/>
	<path class="st1" d="M164.124,39.511h-0.595l1.477-3.583l-2.503-6.068h0.612l2.196,5.419l2.197-5.419h0.594L164.124,39.511z"/>
	<path class="st1" d="M174.512,36v-3.565c0-1.729-0.648-2.251-1.765-2.251s-2.359,1.099-2.359,2.341V36h-0.594v-6.14h0.54
		l0.036,1.422c0.414-0.955,1.494-1.639,2.503-1.639c1.44,0,2.232,0.811,2.232,2.755V36H174.512z"/>
	<path class="st1" d="M180.216,29.644c1.099,0,2.071,0.522,2.593,1.548l0.036-1.332h0.54V36h-0.54l-0.036-1.333
		c-0.521,1.026-1.494,1.549-2.593,1.549c-1.692,0-3.024-1.351-3.024-3.295C177.191,30.958,178.523,29.644,180.216,29.644z
		 M180.307,35.694c1.368,0,2.521-1.008,2.521-2.773c0-1.764-1.152-2.754-2.521-2.754c-1.387,0-2.521,1.008-2.521,2.754
		S178.92,35.694,180.307,35.694z"/>
	<path class="st1" d="M194.546,36v-3.781c0-1.603-0.63-2.035-1.566-2.035c-1.135,0-2.179,1.188-2.179,2.305V36h-0.595v-3.781
		c0-1.603-0.63-2.035-1.584-2.035c-1.116,0-2.161,1.188-2.161,2.305V36h-0.594v-6.14h0.54l0.036,1.386
		c0.432-0.937,1.297-1.603,2.305-1.603c1.188,0,1.746,0.648,1.963,1.657c0.45-0.973,1.386-1.657,2.395-1.657
		c1.458,0,2.034,0.972,2.034,2.503V36H194.546z"/>
	<path class="st1" d="M197.604,27.862v-0.937h0.594v0.937H197.604z M197.604,36v-6.14h0.594V36H197.604z"/>
	<path class="st1" d="M203.453,36.216c-1.729,0-3.133-1.297-3.133-3.295c0-1.98,1.404-3.277,3.133-3.277
		c0.721,0,1.387,0.144,1.999,0.576v0.558c-0.576-0.414-1.297-0.612-1.908-0.612c-1.495,0-2.629,1.026-2.629,2.754
		s1.134,2.773,2.629,2.773c0.611,0,1.35-0.198,1.908-0.594v0.558C204.857,36.072,204.174,36.216,203.453,36.216z"/>
	<path class="st1" d="M9.831,57.6v-3.781c0-1.603-0.63-2.035-1.566-2.035c-1.135,0-2.179,1.188-2.179,2.305V57.6H5.491v-3.781
		c0-1.603-0.63-2.035-1.584-2.035c-1.116,0-2.161,1.188-2.161,2.305V57.6H1.152v-6.14h0.54l0.036,1.386
		c0.432-0.936,1.297-1.603,2.305-1.603c1.188,0,1.746,0.648,1.963,1.657c0.45-0.973,1.386-1.657,2.395-1.657
		c1.458,0,2.034,0.972,2.034,2.503V57.6H9.831z"/>
	<path class="st1" d="M12.888,49.461v-0.936h0.594v0.936H12.888z M12.888,57.6v-6.14h0.594v6.14H12.888z"/>
	<path class="st1" d="M20.684,57.6v-3.565c0-1.729-0.648-2.251-1.765-2.251s-2.359,1.099-2.359,2.341V57.6h-0.594v-6.14h0.54
		l0.036,1.422c0.414-0.955,1.494-1.639,2.503-1.639c1.44,0,2.232,0.81,2.232,2.755V57.6H20.684z"/>
	<path class="st1" d="M26.388,51.244c1.099,0,2.053,0.504,2.575,1.531v-5.978h0.594V57.6h-0.54l-0.018-1.386
		c-0.486,1.044-1.513,1.602-2.611,1.602c-1.692,0-3.024-1.314-3.024-3.277C23.363,52.595,24.695,51.244,26.388,51.244z
		 M26.479,57.294c1.368,0,2.521-0.99,2.521-2.755c0-1.764-1.152-2.773-2.521-2.773c-1.387,0-2.521,1.026-2.521,2.773
		S25.092,57.294,26.479,57.294z"/>
	<path class="st1" d="M36.954,57.816c-0.954,0-1.765-0.396-2.052-0.558l0.107-0.522c0.45,0.27,1.188,0.558,1.963,0.558
		c0.954,0,1.603-0.378,1.603-1.278c0-0.702-0.505-1.008-1.711-1.351c-1.188-0.324-1.782-0.918-1.782-1.764
		c0-0.937,0.72-1.657,2.034-1.657c0.721,0,1.423,0.306,1.675,0.432l-0.108,0.504c-0.432-0.234-1.044-0.415-1.566-0.415
		c-1.044,0-1.44,0.468-1.44,1.099c0,0.72,0.486,1.008,1.44,1.296c1.278,0.342,2.053,0.9,2.053,1.783
		C39.169,57.186,38.215,57.816,36.954,57.816z"/>
	<path class="st1" d="M46.189,54.161h-4.718c0,0-0.018,0.252-0.018,0.324c0,1.404,0.684,2.809,2.719,2.809
		c0.738,0,1.548-0.36,1.998-0.738v0.522c-0.485,0.45-1.296,0.72-2.269,0.72c-1.801,0-3.043-1.333-3.043-3.313
		c0-2.071,1.459-3.241,2.863-3.241c1.387,0,2.503,0.972,2.503,2.341C46.226,53.729,46.207,54.053,46.189,54.161z M45.649,53.423
		c-0.019-0.918-0.793-1.692-1.891-1.692c-0.99,0-1.927,0.594-2.251,1.98h4.142V53.423z"/>
	<path class="st1" d="M49.715,51.964V57.6h-0.594v-5.636h-1.332V51.46h1.332V49.39h0.594v2.071h1.351v0.504H49.715z"/>
	<path class="st1" d="M58.752,46.653v0.468c-0.145-0.018-0.307-0.054-0.433-0.054c-0.792,0-1.225,0.288-1.225,1.909v2.485h1.657
		v0.504h-1.657V57.6h-0.594v-5.636H55.24V51.46h1.261v-2.503c0-1.692,0.576-2.377,1.746-2.377
		C58.428,46.581,58.607,46.617,58.752,46.653z"/>
	<path class="st1" d="M60.856,51.46v3.565c0,1.729,0.648,2.25,1.765,2.25s2.358-1.098,2.358-2.341V51.46h0.595v6.14h-0.541
		l-0.035-1.422c-0.414,0.954-1.495,1.638-2.503,1.638c-1.44,0-2.232-0.81-2.232-2.754V51.46H60.856z"/>
	<path class="st1" d="M73.026,54.161h-4.718c0,0-0.018,0.252-0.018,0.324c0,1.404,0.684,2.809,2.719,2.809
		c0.738,0,1.548-0.36,1.998-0.738v0.522c-0.486,0.45-1.296,0.72-2.269,0.72c-1.801,0-3.043-1.333-3.043-3.313
		c0-2.071,1.459-3.241,2.863-3.241c1.386,0,2.503,0.972,2.503,2.341C73.062,53.729,73.044,54.053,73.026,54.161z M72.486,53.423
		c-0.019-0.918-0.793-1.692-1.891-1.692c-0.99,0-1.927,0.594-2.251,1.98h4.142V53.423z"/>
	<path class="st1" d="M75.256,57.6V46.797h0.594V57.6H75.256z"/>
	<path class="st1" d="M90.306,57.6v-3.781c0-1.603-0.63-2.035-1.566-2.035c-1.135,0-2.179,1.188-2.179,2.305V57.6h-0.595v-3.781
		c0-1.603-0.63-2.035-1.584-2.035c-1.116,0-2.161,1.188-2.161,2.305V57.6h-0.594v-6.14h0.54l0.036,1.386
		c0.432-0.936,1.297-1.603,2.305-1.603c1.188,0,1.746,0.648,1.963,1.657c0.45-0.973,1.386-1.657,2.395-1.657
		c1.458,0,2.034,0.972,2.034,2.503V57.6H90.306z"/>
	<path class="st1" d="M93.94,61.111h-0.595l1.477-3.583l-2.503-6.067h0.612l2.196,5.419l2.197-5.419h0.594L93.94,61.111z"/>
	<path class="st1" d="M105.55,51.244c1.099,0,2.053,0.504,2.575,1.531v-5.978h0.594V57.6h-0.54l-0.018-1.386
		c-0.486,1.044-1.513,1.602-2.611,1.602c-1.692,0-3.024-1.314-3.024-3.277C102.525,52.595,103.857,51.244,105.55,51.244z
		 M105.641,57.294c1.368,0,2.521-0.99,2.521-2.755c0-1.764-1.152-2.773-2.521-2.773c-1.387,0-2.521,1.026-2.521,2.773
		S104.254,57.294,105.641,57.294z"/>
	<path class="st1" d="M116.172,54.161h-4.718c0,0-0.018,0.252-0.018,0.324c0,1.404,0.684,2.809,2.719,2.809
		c0.738,0,1.548-0.36,1.998-0.738v0.522c-0.485,0.45-1.296,0.72-2.269,0.72c-1.801,0-3.043-1.333-3.043-3.313
		c0-2.071,1.459-3.241,2.863-3.241c1.387,0,2.503,0.972,2.503,2.341C116.208,53.729,116.189,54.053,116.172,54.161z M115.632,53.423
		c-0.019-0.918-0.793-1.692-1.891-1.692c-0.99,0-1.927,0.594-2.251,1.98h4.142V53.423z"/>
	<path class="st1" d="M120.021,57.816c-0.954,0-1.764-0.396-2.053-0.558l0.108-0.522c0.45,0.27,1.188,0.558,1.963,0.558
		c0.954,0,1.603-0.378,1.603-1.278c0-0.702-0.504-1.008-1.711-1.351c-1.188-0.324-1.782-0.918-1.782-1.764
		c0-0.937,0.72-1.657,2.034-1.657c0.721,0,1.423,0.306,1.675,0.432l-0.108,0.504c-0.432-0.234-1.044-0.415-1.566-0.415
		c-1.044,0-1.44,0.468-1.44,1.099c0,0.72,0.486,1.008,1.44,1.296c1.278,0.342,2.053,0.9,2.053,1.783
		C122.236,57.186,121.282,57.816,120.021,57.816z"/>
	<path class="st1" d="M124.287,49.461v-0.936h0.594v0.936H124.287z M124.287,57.6v-6.14h0.594v6.14H124.287z"/>
	<path class="st1" d="M129.976,61.183c-0.882,0-1.926-0.342-2.431-0.684v-0.54c0.612,0.378,1.549,0.684,2.485,0.684
		c1.17,0,2.557-0.558,2.557-2.899v-1.458c-0.522,1.026-1.477,1.53-2.575,1.53c-1.692,0-3.024-1.35-3.024-3.295
		c0-1.962,1.332-3.277,3.024-3.277c1.099,0,2.071,0.522,2.593,1.548l0.036-1.332h0.54v6.248
		C133.181,60.571,131.381,61.183,129.976,61.183z M130.102,57.294c1.369,0,2.521-1.008,2.521-2.773c0-1.764-1.152-2.755-2.521-2.755
		c-1.386,0-2.521,1.009-2.521,2.755C127.581,56.268,128.716,57.294,130.102,57.294z"/>
	<path class="st1" d="M140.381,57.6v-3.565c0-1.729-0.648-2.251-1.765-2.251s-2.359,1.099-2.359,2.341V57.6h-0.594v-6.14h0.54
		l0.036,1.422c0.414-0.955,1.494-1.639,2.503-1.639c1.44,0,2.232,0.81,2.232,2.755V57.6H140.381z"/>
	<path class="st1" d="M145.059,57.816c-0.954,0-1.764-0.396-2.053-0.558l0.108-0.522c0.45,0.27,1.188,0.558,1.963,0.558
		c0.954,0,1.603-0.378,1.603-1.278c0-0.702-0.504-1.008-1.711-1.351c-1.188-0.324-1.782-0.918-1.782-1.764
		c0-0.937,0.72-1.657,2.034-1.657c0.721,0,1.423,0.306,1.675,0.432l-0.108,0.504c-0.432-0.234-1.044-0.415-1.566-0.415
		c-1.044,0-1.44,0.468-1.44,1.099c0,0.72,0.486,1.008,1.44,1.296c1.278,0.342,2.053,0.9,2.053,1.783
		C147.273,57.186,146.319,57.816,145.059,57.816z"/>
	<path class="st1" d="M155.266,51.244c1.099,0,2.071,0.522,2.593,1.548l0.036-1.332h0.54v6.14h-0.54l-0.036-1.333
		c-0.521,1.026-1.494,1.548-2.593,1.548c-1.692,0-3.024-1.35-3.024-3.295C152.241,52.559,153.573,51.244,155.266,51.244z
		 M155.355,57.294c1.369,0,2.521-1.008,2.521-2.773c0-1.764-1.152-2.755-2.521-2.755c-1.386,0-2.521,1.009-2.521,2.755
		C152.835,56.268,153.97,57.294,155.355,57.294z"/>
	<path class="st1" d="M165.635,57.6v-3.565c0-1.729-0.648-2.251-1.765-2.251s-2.359,1.099-2.359,2.341V57.6h-0.594v-6.14h0.54
		l0.036,1.422c0.414-0.955,1.494-1.639,2.503-1.639c1.44,0,2.232,0.81,2.232,2.755V57.6H165.635z"/>
	<path class="st1" d="M171.34,51.244c1.099,0,2.053,0.504,2.575,1.531v-5.978h0.594V57.6h-0.54l-0.018-1.386
		c-0.486,1.044-1.513,1.602-2.611,1.602c-1.692,0-3.024-1.314-3.024-3.277C168.315,52.595,169.647,51.244,171.34,51.244z
		 M171.43,57.294c1.369,0,2.521-0.99,2.521-2.755c0-1.764-1.152-2.773-2.521-2.773c-1.386,0-2.521,1.026-2.521,2.773
		S170.044,57.294,171.43,57.294z"/>
	<path class="st1" d="M3.925,79.416c-1.729,0-3.133-1.296-3.133-3.295c0-1.98,1.404-3.277,3.133-3.277
		c0.721,0,1.387,0.144,1.999,0.576v0.558c-0.576-0.414-1.297-0.612-1.908-0.612c-1.495,0-2.629,1.026-2.629,2.755
		s1.134,2.773,2.629,2.773c0.611,0,1.35-0.198,1.908-0.594v0.558C5.33,79.272,4.646,79.416,3.925,79.416z"/>
	<path class="st1" d="M8.586,75.544V79.2H7.992v-6.14h0.54l0.036,1.35c0.432-1.008,1.477-1.548,2.341-1.566v0.63
		C9.721,73.384,8.586,74.356,8.586,75.544z"/>
	<path class="st1" d="M17.463,75.761h-4.718c0,0-0.018,0.252-0.018,0.324c0,1.404,0.684,2.809,2.719,2.809
		c0.738,0,1.548-0.36,1.998-0.738v0.522c-0.485,0.45-1.296,0.72-2.269,0.72c-1.801,0-3.043-1.333-3.043-3.313
		c0-2.071,1.459-3.241,2.863-3.241c1.387,0,2.503,0.972,2.503,2.341C17.499,75.329,17.48,75.653,17.463,75.761z M16.923,75.022
		c-0.019-0.918-0.793-1.692-1.891-1.692c-0.99,0-1.927,0.594-2.251,1.98h4.142V75.022z"/>
	<path class="st1" d="M22.339,72.844c1.099,0,2.071,0.522,2.593,1.548l0.036-1.332h0.54v6.14h-0.54l-0.036-1.333
		c-0.521,1.026-1.494,1.548-2.593,1.548c-1.692,0-3.024-1.35-3.024-3.295C19.314,74.158,20.646,72.844,22.339,72.844z M22.43,78.894
		c1.368,0,2.521-1.008,2.521-2.773c0-1.764-1.152-2.755-2.521-2.755c-1.387,0-2.521,1.009-2.521,2.755
		C19.908,77.867,21.043,78.894,22.43,78.894z"/>
	<path class="st1" d="M29.287,73.564V79.2h-0.595v-5.636H27.36V73.06h1.332v-2.071h0.595v2.071h1.35v0.504H29.287z"/>
	<path class="st1" d="M32.49,71.061v-0.936h0.594v0.936H32.49z M32.49,79.2v-6.14h0.594v6.14H32.49z"/>
	<path class="st1" d="M37.836,79.2h-0.45l-2.574-6.14h0.612l2.196,5.33l2.196-5.33h0.595L37.836,79.2z"/>
	<path class="st1" d="M46.927,75.761h-4.718c0,0-0.018,0.252-0.018,0.324c0,1.404,0.684,2.809,2.719,2.809
		c0.738,0,1.548-0.36,1.998-0.738v0.522c-0.486,0.45-1.296,0.72-2.269,0.72c-1.801,0-3.043-1.333-3.043-3.313
		c0-2.071,1.459-3.241,2.863-3.241c1.386,0,2.503,0.972,2.503,2.341C46.963,75.329,46.944,75.653,46.927,75.761z M46.387,75.022
		c-0.019-0.918-0.793-1.692-1.891-1.692c-0.99,0-1.927,0.594-2.251,1.98h4.142V75.022z"/>
	<path class="st1" d="M55.62,79.416c-1.099,0-2.053-0.504-2.575-1.53v4.826h-0.594V73.06h0.54l0.019,1.386
		c0.485-1.044,1.512-1.603,2.61-1.603c1.692,0,3.024,1.314,3.024,3.277C58.645,78.065,57.312,79.416,55.62,79.416z M55.53,73.366
		c-1.368,0-2.521,0.991-2.521,2.755c0,1.765,1.152,2.773,2.521,2.773c1.386,0,2.521-1.026,2.521-2.773
		C58.051,74.375,56.916,73.366,55.53,73.366z"/>
	<path class="st1" d="M61.343,75.544V79.2h-0.594v-6.14h0.54l0.036,1.35c0.433-1.008,1.477-1.548,2.341-1.566v0.63
		C62.478,73.384,61.343,74.356,61.343,75.544z"/>
	<path class="st1" d="M68.058,79.434c-1.818,0-3.241-1.404-3.241-3.313c0-1.891,1.423-3.295,3.241-3.295
		c1.837,0,3.241,1.404,3.241,3.295C71.299,78.029,69.895,79.434,68.058,79.434z M68.058,73.348c-1.458,0-2.646,1.098-2.646,2.772
		c0,1.693,1.188,2.791,2.646,2.791c1.459,0,2.647-1.098,2.647-2.791C70.705,74.446,69.517,73.348,68.058,73.348z"/>
	<path class="st1" d="M76.121,79.416c-1.729,0-3.133-1.296-3.133-3.295c0-1.98,1.404-3.277,3.133-3.277
		c0.721,0,1.387,0.144,1.999,0.576v0.558c-0.576-0.414-1.297-0.612-1.908-0.612c-1.495,0-2.629,1.026-2.629,2.755
		s1.134,2.773,2.629,2.773c0.611,0,1.35-0.198,1.908-0.594v0.558C77.525,79.272,76.842,79.416,76.121,79.416z"/>
	<path class="st1" d="M85.158,75.761H80.44c0,0-0.018,0.252-0.018,0.324c0,1.404,0.684,2.809,2.719,2.809
		c0.738,0,1.548-0.36,1.998-0.738v0.522c-0.485,0.45-1.296,0.72-2.269,0.72c-1.801,0-3.043-1.333-3.043-3.313
		c0-2.071,1.459-3.241,2.863-3.241c1.387,0,2.503,0.972,2.503,2.341C85.194,75.329,85.176,75.653,85.158,75.761z M84.618,75.022
		c-0.019-0.918-0.793-1.692-1.891-1.692c-0.99,0-1.927,0.594-2.251,1.98h4.142V75.022z"/>
	<path class="st1" d="M89.008,79.416c-0.954,0-1.764-0.396-2.053-0.558l0.108-0.522c0.45,0.27,1.188,0.558,1.963,0.558
		c0.954,0,1.603-0.378,1.603-1.278c0-0.702-0.504-1.008-1.711-1.351c-1.188-0.324-1.782-0.918-1.782-1.764
		c0-0.937,0.72-1.657,2.034-1.657c0.721,0,1.423,0.306,1.675,0.432l-0.108,0.504c-0.432-0.234-1.044-0.415-1.566-0.415
		c-1.044,0-1.44,0.468-1.44,1.099c0,0.72,0.486,1.008,1.44,1.296c1.278,0.342,2.053,0.9,2.053,1.783
		C91.223,78.786,90.269,79.416,89.008,79.416z"/>
	<path class="st1" d="M94.895,79.416c-0.954,0-1.764-0.396-2.053-0.558l0.108-0.522c0.45,0.27,1.188,0.558,1.963,0.558
		c0.954,0,1.603-0.378,1.603-1.278c0-0.702-0.504-1.008-1.711-1.351c-1.188-0.324-1.782-0.918-1.782-1.764
		c0-0.937,0.72-1.657,2.034-1.657c0.721,0,1.423,0.306,1.675,0.432l-0.108,0.504c-0.432-0.234-1.044-0.415-1.566-0.415
		c-1.044,0-1.44,0.468-1.44,1.099c0,0.72,0.486,1.008,1.44,1.296c1.278,0.342,2.053,0.9,2.053,1.783
		C97.109,78.786,96.155,79.416,94.895,79.416z"/>
	<path class="st1" d="M99.286,79.2v-0.864h0.864V79.2H99.286z"/>
	<path class="st1" d="M106.199,79.2V68.396h0.611V79.2H106.199z"/>
	<path class="st1" d="M115.379,72.844c1.099,0,2.053,0.504,2.575,1.531v-5.978h0.594V79.2h-0.54l-0.018-1.386
		c-0.486,1.044-1.513,1.602-2.611,1.602c-1.692,0-3.024-1.314-3.024-3.277C112.354,74.194,113.687,72.844,115.379,72.844z
		 M115.469,78.894c1.369,0,2.521-0.99,2.521-2.755c0-1.764-1.152-2.773-2.521-2.773c-1.386,0-2.521,1.026-2.521,2.773
		S114.083,78.894,115.469,78.894z"/>
	<path class="st1" d="M126.001,75.761h-4.718c0,0-0.018,0.252-0.018,0.324c0,1.404,0.684,2.809,2.719,2.809
		c0.738,0,1.548-0.36,1.998-0.738v0.522c-0.486,0.45-1.296,0.72-2.269,0.72c-1.801,0-3.043-1.333-3.043-3.313
		c0-2.071,1.459-3.241,2.863-3.241c1.386,0,2.503,0.972,2.503,2.341C126.037,75.329,126.019,75.653,126.001,75.761z M125.461,75.022
		c-0.019-0.918-0.793-1.692-1.891-1.692c-0.99,0-1.927,0.594-2.251,1.98h4.142V75.022z"/>
	<path class="st1" d="M129.851,79.416c-0.954,0-1.765-0.396-2.052-0.558l0.107-0.522c0.45,0.27,1.188,0.558,1.963,0.558
		c0.954,0,1.603-0.378,1.603-1.278c0-0.702-0.505-1.008-1.711-1.351c-1.188-0.324-1.782-0.918-1.782-1.764
		c0-0.937,0.72-1.657,2.034-1.657c0.721,0,1.423,0.306,1.675,0.432l-0.108,0.504c-0.432-0.234-1.044-0.415-1.566-0.415
		c-1.044,0-1.44,0.468-1.44,1.099c0,0.72,0.486,1.008,1.44,1.296c1.278,0.342,2.053,0.9,2.053,1.783
		C132.065,78.786,131.111,79.416,129.851,79.416z"/>
	<path class="st1" d="M134.116,71.061v-0.936h0.594v0.936H134.116z M134.116,79.2v-6.14h0.594v6.14H134.116z"/>
	<path class="st1" d="M139.805,82.783c-0.882,0-1.926-0.342-2.431-0.684v-0.54c0.612,0.378,1.549,0.684,2.485,0.684
		c1.17,0,2.557-0.558,2.557-2.899v-1.458c-0.522,1.026-1.477,1.53-2.575,1.53c-1.692,0-3.024-1.35-3.024-3.295
		c0-1.962,1.332-3.277,3.024-3.277c1.099,0,2.071,0.522,2.593,1.548l0.036-1.332h0.54v6.248
		C143.01,82.17,141.21,82.783,139.805,82.783z M139.932,78.894c1.368,0,2.521-1.008,2.521-2.773c0-1.764-1.152-2.755-2.521-2.755
		c-1.387,0-2.521,1.009-2.521,2.755C137.41,77.867,138.545,78.894,139.932,78.894z"/>
	<path class="st1" d="M150.21,79.2v-3.565c0-1.729-0.648-2.251-1.765-2.251s-2.359,1.099-2.359,2.341V79.2h-0.594v-6.14h0.54
		l0.036,1.422c0.414-0.955,1.494-1.639,2.503-1.639c1.44,0,2.232,0.81,2.232,2.755V79.2H150.21z"/>
	<path class="st1" d="M159.335,79.416c-1.729,0-3.133-1.296-3.133-3.295c0-1.98,1.404-3.277,3.133-3.277
		c0.721,0,1.387,0.144,1.999,0.576v0.558c-0.576-0.414-1.297-0.612-1.908-0.612c-1.495,0-2.629,1.026-2.629,2.755
		s1.134,2.773,2.629,2.773c0.611,0,1.35-0.198,1.908-0.594v0.558C160.74,79.272,160.056,79.416,159.335,79.416z"/>
	<path class="st1" d="M163.402,79.2V68.396h0.594V79.2H163.402z"/>
	<path class="st1" d="M171.449,75.761h-4.718c0,0-0.018,0.252-0.018,0.324c0,1.404,0.684,2.809,2.719,2.809
		c0.738,0,1.548-0.36,1.998-0.738v0.522c-0.485,0.45-1.296,0.72-2.269,0.72c-1.801,0-3.043-1.333-3.043-3.313
		c0-2.071,1.459-3.241,2.863-3.241c1.387,0,2.503,0.972,2.503,2.341C171.485,75.329,171.467,75.653,171.449,75.761z M170.909,75.022
		c-0.019-0.918-0.793-1.692-1.891-1.692c-0.99,0-1.927,0.594-2.251,1.98h4.142V75.022z"/>
	<path class="st1" d="M176.326,72.844c1.099,0,2.071,0.522,2.593,1.548l0.036-1.332h0.54v6.14h-0.54l-0.036-1.333
		c-0.521,1.026-1.494,1.548-2.593,1.548c-1.692,0-3.024-1.35-3.024-3.295C173.302,74.158,174.634,72.844,176.326,72.844z
		 M176.416,78.894c1.369,0,2.521-1.008,2.521-2.773c0-1.764-1.152-2.755-2.521-2.755c-1.386,0-2.521,1.009-2.521,2.755
		C173.896,77.867,175.03,78.894,176.416,78.894z"/>
	<path class="st1" d="M186.695,79.2v-3.565c0-1.729-0.648-2.251-1.765-2.251s-2.359,1.099-2.359,2.341V79.2h-0.594v-6.14h0.54
		l0.036,1.422c0.414-0.955,1.494-1.639,2.503-1.639c1.44,0,2.232,0.81,2.232,2.755V79.2H186.695z"/>
	<path class="st1" d="M189.681,81.162l-0.162-0.252c0.559-0.306,0.793-0.936,0.793-1.71h-0.433v-0.864h0.864v0.81
		C190.743,80.118,190.401,80.838,189.681,81.162z"/>
	<path class="st1" d="M3.925,101.016c-1.729,0-3.133-1.297-3.133-3.295c0-1.98,1.404-3.277,3.133-3.277
		c0.721,0,1.387,0.144,1.999,0.576v0.558c-0.576-0.414-1.297-0.612-1.908-0.612c-1.495,0-2.629,1.026-2.629,2.754
		s1.134,2.773,2.629,2.773c0.611,0,1.35-0.198,1.908-0.594v0.558C5.33,100.872,4.646,101.016,3.925,101.016z"/>
	<path class="st1" d="M8.586,97.145v3.655H7.992v-6.14h0.54l0.036,1.35c0.432-1.008,1.477-1.548,2.341-1.566v0.63
		C9.721,94.984,8.586,95.957,8.586,97.145z"/>
	<path class="st1" d="M12.673,92.662v-0.937h0.594v0.937H12.673z M12.673,100.8v-6.14h0.594v6.14H12.673z"/>
	<path class="st1" d="M17.37,101.016c-0.954,0-1.765-0.396-2.052-0.559l0.107-0.522c0.45,0.27,1.188,0.558,1.963,0.558
		c0.954,0,1.603-0.378,1.603-1.278c0-0.702-0.505-1.008-1.711-1.351c-1.188-0.324-1.782-0.918-1.782-1.764
		c0-0.937,0.72-1.657,2.034-1.657c0.721,0,1.423,0.306,1.675,0.432l-0.108,0.504c-0.432-0.234-1.044-0.414-1.566-0.414
		c-1.044,0-1.44,0.468-1.44,1.098c0,0.72,0.486,1.008,1.44,1.296c1.278,0.342,2.053,0.9,2.053,1.782
		C19.585,100.386,18.631,101.016,17.37,101.016z"/>
	<path class="st1" d="M24.805,101.016c-1.099,0-2.053-0.504-2.575-1.531v4.826h-0.594V94.66h0.54l0.019,1.386
		c0.485-1.044,1.512-1.603,2.61-1.603c1.692,0,3.025,1.314,3.025,3.277C27.83,99.666,26.497,101.016,24.805,101.016z M24.715,94.966
		c-1.368,0-2.521,0.99-2.521,2.754c0,1.765,1.152,2.773,2.521,2.773c1.387,0,2.521-1.026,2.521-2.773S26.102,94.966,24.715,94.966z"
		/>
	<path class="st1" d="M29.862,102.762L29.7,102.51c0.559-0.306,0.793-0.936,0.793-1.71h-0.433v-0.864h0.864v0.81
		C30.925,101.718,30.583,102.438,29.862,102.762z"/>
	<path class="st1" d="M39.475,94.444c1.099,0,2.071,0.522,2.593,1.548l0.036-1.332h0.54v6.14h-0.54l-0.036-1.333
		c-0.521,1.026-1.494,1.549-2.593,1.549c-1.692,0-3.024-1.351-3.024-3.295C36.45,95.758,37.782,94.444,39.475,94.444z
		 M39.564,100.494c1.369,0,2.521-1.008,2.521-2.773c0-1.764-1.152-2.754-2.521-2.754c-1.386,0-2.521,1.008-2.521,2.754
		S38.179,100.494,39.564,100.494z"/>
	<path class="st1" d="M49.845,100.8v-3.565c0-1.729-0.648-2.251-1.765-2.251s-2.359,1.099-2.359,2.341v3.475h-0.594v-6.14h0.54
		l0.036,1.422c0.414-0.955,1.494-1.639,2.503-1.639c1.44,0,2.232,0.811,2.232,2.755v3.601H49.845z"/>
	<path class="st1" d="M55.549,94.444c1.099,0,2.053,0.504,2.575,1.53v-5.978h0.594V100.8h-0.54l-0.018-1.386
		c-0.486,1.044-1.513,1.603-2.611,1.603c-1.692,0-3.024-1.314-3.024-3.277C52.524,95.794,53.856,94.444,55.549,94.444z
		 M55.639,100.494c1.369,0,2.521-0.99,2.521-2.755s-1.152-2.772-2.521-2.772c-1.386,0-2.521,1.026-2.521,2.772
		S54.253,100.494,55.639,100.494z"/>
	<path class="st1" d="M65.791,95.164v5.636h-0.594v-5.636h-1.332V94.66h1.332v-2.071h0.594v2.071h1.351v0.504H65.791z"/>
	<path class="st1" d="M71.803,101.034c-1.818,0-3.24-1.404-3.24-3.313c0-1.89,1.422-3.295,3.24-3.295
		c1.837,0,3.241,1.405,3.241,3.295C75.044,99.629,73.64,101.034,71.803,101.034z M71.803,94.948c-1.458,0-2.646,1.098-2.646,2.772
		c0,1.693,1.188,2.791,2.646,2.791c1.459,0,2.647-1.098,2.647-2.791C74.45,96.046,73.262,94.948,71.803,94.948z"/>
	<path class="st1" d="M81.684,95.164v5.636H81.09v-5.636h-1.332V94.66h1.332v-2.071h0.594v2.071h1.351v0.504H81.684z"/>
	<path class="st1" d="M89.605,100.8v-3.565c0-1.729-0.648-2.251-1.765-2.251s-2.359,1.099-2.359,2.341v3.475h-0.594V89.997h0.594
		v6.068c0.415-0.955,1.477-1.621,2.485-1.621c1.44,0,2.232,0.811,2.232,2.755v3.601H89.605z"/>
	<path class="st1" d="M97.633,97.361h-4.718c0,0-0.018,0.252-0.018,0.324c0,1.404,0.684,2.809,2.719,2.809
		c0.738,0,1.548-0.36,1.998-0.738v0.522c-0.485,0.45-1.296,0.72-2.269,0.72c-1.801,0-3.043-1.333-3.043-3.313
		c0-2.071,1.459-3.241,2.863-3.241c1.387,0,2.503,0.972,2.503,2.341C97.669,96.929,97.65,97.253,97.633,97.361z M97.093,96.623
		c-0.019-0.918-0.793-1.692-1.891-1.692c-0.99,0-1.927,0.594-2.251,1.98h4.142V96.623z"/>
	<path class="st1" d="M106.326,101.016c-1.099,0-2.053-0.504-2.575-1.531v4.826h-0.594V94.66h0.54l0.019,1.386
		c0.485-1.044,1.512-1.603,2.61-1.603c1.692,0,3.025,1.314,3.025,3.277C109.352,99.666,108.019,101.016,106.326,101.016z
		 M106.236,94.966c-1.368,0-2.521,0.99-2.521,2.754c0,1.765,1.152,2.773,2.521,2.773c1.387,0,2.521-1.026,2.521-2.773
		S107.623,94.966,106.236,94.966z"/>
	<path class="st1" d="M114.264,101.034c-1.818,0-3.24-1.404-3.24-3.313c0-1.89,1.422-3.295,3.24-3.295
		c1.837,0,3.241,1.405,3.241,3.295C117.505,99.629,116.101,101.034,114.264,101.034z M114.264,94.948
		c-1.458,0-2.646,1.098-2.646,2.772c0,1.693,1.188,2.791,2.646,2.791c1.459,0,2.647-1.098,2.647-2.791
		C116.911,96.046,115.723,94.948,114.264,94.948z"/>
	<path class="st1" d="M119.555,92.662v-0.937h0.594v0.937H119.555z M119.555,100.8v-6.14h0.594v6.14H119.555z"/>
	<path class="st1" d="M127.351,100.8v-3.565c0-1.729-0.648-2.251-1.765-2.251s-2.359,1.099-2.359,2.341v3.475h-0.594v-6.14h0.54
		l0.036,1.422c0.414-0.955,1.494-1.639,2.503-1.639c1.44,0,2.232,0.811,2.232,2.755v3.601H127.351z"/>
	<path class="st1" d="M131.705,95.164v5.636h-0.595v-5.636h-1.332V94.66h1.332v-2.071h0.595v2.071h1.35v0.504H131.705z"/>
	<path class="st1" d="M135.033,100.8v-0.864h0.864v0.864H135.033z"/>
</g>
</svg>