<!-- Generator: Adobe Illustrator 21.0.0, SVG Export Plug-In  -->
<svg version="1.1"
	 xmlns="http://www.w3.org/2000/svg" xmlns:xlink="http://www.w3.org/1999/xlink" xmlns:a="http://ns.adobe.com/AdobeSVGViewerExtensions/3.0/"
	 x="0px" y="0px" width="364.271px" height="142.564px" viewBox="0 0 364.271 142.564"
	 style="enable-background:new 0 0 364.271 142.564;" xml:space="preserve">
<style type="text/css">
	.st0{fill:#FFFFFF;}
	.st1{fill:#FFF682;}
	.st2{font-family:'Haettenschweiler';}
	.st3{font-size:36px;}
	.st4{letter-spacing:15;}
</style>
<defs>
</defs>
<g>
	<g>
		<g>
			<path class="st0" d="M0,93.684V48.654h45.566l-6.384,7.668H8.907v10.054H26.58v7.668H8.907v11.162h30.636l6.384,8.478H0z"/>
			<path class="st0" d="M62.326,94.342l-0.001-45.915h6.677l29.579,27.161c1.006,0.967,2.662,2.735,2.662,2.735l1.988,3.404
				c0,0-0.279-8.695-0.279-9.319V55.797l8.784-7.37l0.001,45.915h-6.677L74.213,65.347c-0.741-0.779-1.948-2.105-1.948-2.105
				l-1.415-3.291c0,0,0.262,8.233,0.262,9.23v17.36L62.326,94.342z"/>
			<path class="st0" d="M173.596,56.706h-27.81v28.501h27.81V75.195h-8.171l6.411-2.797l10.416-4.871v15.507
				c0,4.119-0.653,6.922-1.956,8.414c-1.303,1.49-3.815,2.236-7.531,2.236h-26.399c-3.718,0-6.228-0.746-7.533-2.236
				c-1.303-1.492-1.956-4.296-1.956-8.414V59.304c0-4.09,0.653-6.887,1.956-8.393c1.305-1.505,3.816-2.258,7.533-2.258h26.399
				c3.668,0,6.168,0.739,7.496,2.215c1.326,1.478,1.991,4.147,1.991,8.009v3.121l-8.656,2.52V56.706z"/>
			<path class="st0" d="M207.678,93.733l-0.001-45.306l9.864,9.426l-0.003,27.255h23.142l8.661,8.624H207.678z"/>
		</g>
		<g>
			<g>
				<g>
					<g>
						<polygon class="st1" points="308.204,23.279 308.204,25.218 330.991,25.218 325.114,30.433 295.576,30.433 						"/>
						<polygon class="st1" points="336.172,10.701 308.204,23.279 308.204,15.261 						"/>
						<polygon class="st1" points="356.309,7.348 336.172,10.701 360.125,0 						"/>
					</g>
					<g>
						<polygon class="st1" points="334.734,68.116 340.414,55.488 338.474,55.488 338.474,30.433 332.837,36.621 						"/>
						<polygon class="st1" points="352.991,27.52 340.414,55.488 348.431,55.488 						"/>
						<polygon class="st1" points="356.309,7.348 352.991,27.52 364.271,3.557 						"/>
					</g>
				</g>
				<polygon class="st1" points="348.965,13.616 333.898,22.64 310.091,43.76 317.407,43.76 				"/>
			</g>
			<g>
				<path class="st1" d="M249.029,108.167h-0.001c-0.007,0.008-0.712,0.838-0.712,0.838c-5.527,6.33-4.124,4.217-9.205,10.924
					l-8.301,11.263l8.418-9.684c3.841-5.22,7.019-7.576,11.998-12.503c0,0,6.784-6.682,12.768-12.321v-4.51
					C257.029,99.367,257.371,99.005,249.029,108.167z"/>
				<polygon class="st0" points="308.52,85.206 277.884,85.206 277.884,74.045 295.556,74.045 295.556,66.376 277.884,66.376 
					277.884,56.322 308.158,56.322 314.542,48.654 268.977,48.654 268.977,88.799 268.977,93.309 268.977,93.684 314.904,93.684 
									"/>
			</g>
		</g>
	</g>
	<g>
		<path class="st1" d="M19.955,130.663h-2.654l-0.721-1.389c-1.219,1.078-2.508,1.617-3.867,1.617c-1.324,0-2.481-0.343-3.472-1.028
			s-1.485-1.778-1.485-3.278v-16.453c0-3.27,2.086-4.904,6.258-4.904c3.961,0,5.941,1.488,5.941,4.465v4.676h-5.027v-5.098
			c0-0.41-0.272-0.615-0.817-0.615s-0.817,0.205-0.817,0.615v17.49c0,0.41,0.272,0.615,0.817,0.615s0.817-0.205,0.817-0.615v-4.711
			h-1.125v-3.867h6.152V130.663z"/>
		<path class="st1" d="M50.649,130.698h-5.537c-0.598-0.715-0.896-2.742-0.896-6.082v-0.035l0.035-1.512
			c0.035-2.098,0.053-3.17,0.053-3.217c0-0.855-0.574-1.283-1.723-1.283v12.094h-5.537v-25.207h6.838
			c1.559,0,2.915,0.357,4.069,1.072s1.731,1.846,1.731,3.393v3.023c0,1.957-1.143,3.281-3.428,3.973
			c2.297,0.539,3.445,1.928,3.445,4.166l-0.088,2.76C49.612,127.874,49.957,130.159,50.649,130.698z M44.285,114.171v-4.159
			c0-0.881-0.568-1.322-1.705-1.322v6.82C43.717,115.511,44.285,115.065,44.285,114.171z"/>
		<path class="st1" d="M82.203,130.663h-5.486l-0.935-6.768h-2.457l-0.946,6.768h-5.486l4.141-25.207h7.021L82.203,130.663z
			 M75.336,120.398l-0.797-7.523l-0.754,7.523H75.336z"/>
		<path class="st1" d="M104.319,121.382v9.281h-5.396v-25.207h5.818c2.309,0,4.022,0.293,5.142,0.879s1.679,1.781,1.679,3.586v6.996
			c0,1.652-0.457,2.821-1.371,3.507S107.319,121.429,104.319,121.382z M106.164,116.442v-6.047c0-0.891-0.615-1.336-1.846-1.336
			v8.719C105.549,117.778,106.164,117.333,106.164,116.442z"/>
		<path class="st1" d="M140.937,130.663H135.4v-12.094h-1.547v12.094h-5.537v-25.207h5.537v10.055h1.547v-10.055h5.537V130.663z"/>
		<path class="st1" d="M163.368,130.663h-5.537v-25.207h5.537V130.663z"/>
		<path class="st1" d="M192.427,114.263H187.4v-4.992c0-0.41-0.255-0.615-0.765-0.615c-0.533,0-0.8,0.205-0.8,0.615v17.49
			c0,0.41,0.267,0.615,0.8,0.615c0.51,0,0.765-0.205,0.765-0.615v-6.223h5.027v6.398c0,1.195-0.586,2.153-1.758,2.874
			s-2.496,1.081-3.973,1.081c-4.266,0-6.398-1.512-6.398-4.535v-16.225c0-3.27,2.133-4.904,6.398-4.904
			c3.82,0,5.73,1.488,5.73,4.465V114.263z"/>
		<path class="st1" d="M209.462,120.573h5.027v5.783c0,0.574,0.349,0.861,1.046,0.861c0.674,0,1.011-0.287,1.011-0.861v-2.988
			c0-0.914-0.609-1.986-1.828-3.217c-2.355-2.285-3.82-3.82-4.395-4.605s-0.861-1.646-0.861-2.584v-2.83
			c0-3.27,2.136-4.904,6.408-4.904c3.825,0,5.738,1.488,5.738,4.465v4.359h-5.027v-4.641c0-0.504-0.281-0.756-0.843-0.756
			c-0.657,0-0.985,0.486-0.985,1.459l0.105,1.635c0,0.938,0.623,2.027,1.868,3.27c2.314,2.215,3.785,3.762,4.414,4.641
			c0.628,0.879,0.942,1.875,0.942,2.988v3.217c0,3.352-2.142,5.027-6.425,5.027c-4.131,0-6.196-1.523-6.196-4.57V120.573z"/>
	</g>
</g>
</svg>